<?xml version="1.0" encoding="UTF-8" standalone="no"?>
<!DOCTYPE svg PUBLIC "-//W3C//DTD SVG 1.1//EN" "http://www.w3.org/Graphics/SVG/1.1/DTD/svg11.dtd">
<svg width="360" height="360" viewBox="0 0 360 360" version="1.1" xmlns="http://www.w3.org/2000/svg">
<rect x="0" y="0" width="360" height="360" style="fill:white;"/>
<circle cx="180.0" cy="180.0" r="99.78261" fill="rgb(67,204,60)" />
<circle cx="282.90195" cy="113.02379" r="22.869566" fill="rgb(170,86,32)" />
<circle cx="302.20224" cy="155.3293" r="21.565218" fill="rgb(6,130,134)" />
<circle cx="305.19962" cy="196.8946" r="19.782608" fill="rgb(19,85,39)" />
<circle cx="295.42126" cy="235.07968" r="19.391304" fill="rgb(148,246,38)" />
<circle cx="277.8364" cy="264.4198" r="13.0" fill="rgb(45,55,193)" />
<circle cx="259.7265" cy="282.965" r="12.217391" fill="rgb(186,74,18)" />
<circle cx="238.12395" cy="297.6485" r="11.73913" fill="rgb(73,85,220)" />
<circle cx="213.84784" cy="307.81757" r="11.608696" fill="rgb(47,95,219)" />
<circle cx="190.78244" cy="312.6748" r="11.130435" fill="rgb(74,107,123)" />
<circle cx="167.06378" cy="313.37524" r="10.391304" fill="rgb(179,220,197)" />
<circle cx="146.36191" cy="310.51373" r="8.956522" fill="rgb(250,85,88)" />
<circle cx="129.0592" cy="305.50116" r="8.869565" fill="rgb(23,178,109)" />
<circle cx="112.49654" cy="298.19403" r="7.9565215" fill="rgb(80,10,79)" />
<circle cx="96.97828" cy="288.70084" r="7.6086955" fill="rgb(57,241,184)" />
<circle cx="85.052956" cy="279.22614" r="7.173913" fill="rgb(181,44,46)" />
<circle cx="74.209625" cy="268.44244" r="6.826087" fill="rgb(222,210,218)" />
<circle cx="64.59202" cy="256.47348" r="6.652174" fill="rgb(219,71,241)" />
<circle cx="56.329727" cy="243.4586" r="6.3913045" fill="rgb(231,8,234)" />
<circle cx="49.536438" cy="229.55148" r="6.0" fill="rgb(91,148,88)" />
<circle cx="45.22484" cy="217.8945" r="6.0" fill="rgb(85,221,14)" />
<circle cx="41.956085" cy="205.86232" r="5.608696" fill="rgb(172,104,169)" />
<circle cx="39.762833" cy="193.54837" r="5.2608695" fill="rgb(148,3,187)" />
<circle cx="38.669327" cy="181.04889" r="4.7391305" fill="rgb(160,250,253)" />
<circle cx="38.69124" cy="168.46223" r="4.695652" fill="rgb(58,154,148)" />
<circle cx="39.444077" cy="159.02493" r="4.608696" fill="rgb(52,74,92)" />
<circle cx="40.827957" cy="149.63689" r="4.608696" fill="rgb(221,24,221)" />
<circle cx="42.839645" cy="140.34036" r="4.347826" fill="rgb(125,36,189)" />
<circle cx="45.473053" cy="131.17737" r="4.130435" fill="rgb(232,32,185)" />
<circle cx="48.7193" cy="122.189545" r="4.043478" fill="rgb(29,246,228)" />
<circle cx="52.566727" cy="113.41792" r="3.8695652" fill="rgb(153,205,219)" />
<circle cx="57.000877" cy="104.902756" r="3.7391305" fill="rgb(105,198,226)" />
<circle cx="62.004677" cy="96.683334" r="3.695652" fill="rgb(28,168,187)" />
<circle cx="67.55831" cy="88.7978" r="3.5652175" fill="rgb(176,100,232)" />
<circle cx="73.639496" cy="81.282974" r="3.521739" fill="rgb(106,52,6)" />
<circle cx="80.22346" cy="74.1742" r="3.478261" fill="rgb(55,211,34)" />
<circle cx="87.28301" cy="67.50512" r="3.478261" fill="rgb(137,224,238)" />
<circle cx="94.788795" cy="61.30761" r="3.478261" fill="rgb(171,18,140)" />
<circle cx="102.70923" cy="55.611534" r="3.3913045" fill="rgb(85,210,61)" />
<circle cx="111.01078" cy="50.444656" r="3.347826" fill="rgb(158,54,18)" />
<circle cx="119.65806" cy="45.83252" r="3.347826" fill="rgb(197,211,55)" />
<circle cx="128.61392" cy="41.79825" r="3.304348" fill="rgb(106,73,247)" />
<circle cx="137.83972" cy="38.362534" r="3.2608695" fill="rgb(56,213,26)" />
<circle cx="147.29541" cy="35.543427" r="3.2608695" fill="rgb(232,116,158)" />
<circle cx="153.70657" cy="34.014297" r="3.2173913" fill="rgb(114,245,88)" />
<circle cx="160.18912" cy="32.76999" r="3.173913" fill="rgb(155,191,122)" />
<circle cx="166.73035" cy="31.813828" r="3.0869565" fill="rgb(26,52,29)" />
<circle cx="173.31746" cy="31.148605" r="3.0" fill="rgb(219,219,90)" />
<circle cx="179.93748" cy="30.776459" r="3.0" fill="rgb(222,47,184)" />
<circle cx="186.5774" cy="30.69902" r="3.0" fill="rgb(159,149,11)" />
<circle cx="193.22403" cy="30.917358" r="3.0" fill="rgb(101,42,194)" />
<circle cx="199.86423" cy="31.431854" r="3.0" fill="rgb(205,162,224)" />
<circle cx="206.48477" cy="32.242416" r="2.9565217" fill="rgb(83,3,225)" />
<circle cx="213.07243" cy="33.348267" r="2.9130435" fill="rgb(33,26,35)" />
<circle cx="219.61404" cy="34.748108" r="2.9130435" fill="rgb(154,153,222)" />
<circle cx="226.09645" cy="36.440033" r="2.9130435" fill="rgb(160,238,245)" />
<circle cx="232.50664" cy="38.421524" r="2.9130435" fill="rgb(22,131,34)" />
<circle cx="238.83163" cy="40.689514" r="2.8695652" fill="rgb(211,121,53)" />
<circle cx="245.05862" cy="43.240326" r="2.8695652" fill="rgb(180,210,5)" />
<circle cx="251.17494" cy="46.069717" r="2.7826087" fill="rgb(101,34,19)" />
<circle cx="257.16815" cy="49.172897" r="2.7391305" fill="rgb(229,139,238)" />
<circle cx="263.02594" cy="52.544502" r="2.7391305" fill="rgb(220,9,53)" />
<circle cx="268.7363" cy="56.17861" r="2.6956522" fill="rgb(37,49,28)" />
<circle cx="274.28745" cy="60.06878" r="2.6956522" fill="rgb(71,222,44)" />
<circle cx="279.6679" cy="64.20802" r="2.6956522" fill="rgb(206,69,195)" />
<circle cx="284.86646" cy="68.58883" r="2.6956522" fill="rgb(137,147,99)" />
<circle cx="289.87228" cy="73.203224" r="2.652174" fill="rgb(147,215,139)" />
<circle cx="294.6749" cy="78.0427" r="2.652174" fill="rgb(166,207,244)" />
<circle cx="299.26413" cy="83.0983" r="2.6086955" fill="rgb(34,231,128)" />
<circle cx="303.63028" cy="88.36062" r="2.5652175" fill="rgb(140,37,199)" />
<circle cx="307.764" cy="93.819786" r="2.5652175" fill="rgb(210,171,1)" />
<circle cx="311.65643" cy="99.46554" r="2.5652175" fill="rgb(241,221,31)" />
<circle cx="315.2991" cy="105.28719" r="2.5652175" fill="rgb(15,124,38)" />
<circle cx="318.68414" cy="111.27369" r="2.5652175" fill="rgb(188,70,42)" />
<circle cx="321.80402" cy="117.41362" r="2.521739" fill="rgb(131,250,24)" />
<circle cx="324.65182" cy="123.69524" r="2.521739" fill="rgb(142,235,148)" />
<circle cx="327.22107" cy="130.10645" r="2.521739" fill="rgb(84,37,185)" />
<circle cx="329.50592" cy="136.6349" r="2.521739" fill="rgb(125,197,198)" />
<circle cx="331.50098" cy="143.26797" r="2.521739" fill="rgb(150,227,159)" />
<circle cx="333.20148" cy="149.99278" r="2.478261" fill="rgb(247,113,243)" />
<circle cx="334.60318" cy="156.79623" r="2.478261" fill="rgb(135,80,117)" />
<circle cx="335.70245" cy="163.66504" r="2.478261" fill="rgb(22,12,126)" />
<circle cx="336.4963" cy="170.58575" r="2.478261" fill="rgb(101,86,73)" />
<circle cx="336.98224" cy="177.54477" r="2.478261" fill="rgb(211,99,137)" />
<circle cx="337.15845" cy="184.52838" r="2.478261" fill="rgb(7,245,142)" />
<circle cx="337.02368" cy="191.52278" r="2.478261" fill="rgb(182,6,227)" />
<circle cx="336.57733" cy="198.51413" r="2.4347825" fill="rgb(126,71,187)" />
<circle cx="335.81943" cy="205.48851" r="2.4347825" fill="rgb(129,119,10)" />
<circle cx="334.7506" cy="212.43204" r="2.3913043" fill="rgb(73,148,83)" />
<circle cx="333.37207" cy="219.33086" r="2.3913043" fill="rgb(197,1,212)" />
<circle cx="331.68573" cy="226.17111" r="2.3913043" fill="rgb(227,224,190)" />
<circle cx="329.69403" cy="232.93906" r="2.347826" fill="rgb(180,142,211)" />
<circle cx="327.40012" cy="239.62108" r="2.347826" fill="rgb(82,39,72)" />
<circle cx="324.80768" cy="246.20364" r="2.347826" fill="rgb(218,113,79)" />
<circle cx="321.92102" cy="252.67343" r="2.347826" fill="rgb(237,64,28)" />
<circle cx="318.74506" cy="259.01724" r="2.347826" fill="rgb(246,240,102)" />
<circle cx="315.2853" cy="265.22217" r="2.347826" fill="rgb(140,67,172)" />
<circle cx="311.54816" cy="271.27496" r="2.3043478" fill="rgb(174,174,244)" />
<circle cx="307.54" cy="277.16373" r="2.3043478" fill="rgb(200,21,51)" />
<circle cx="303.268" cy="282.87634" r="2.3043478" fill="rgb(13,135,7)" />
<circle cx="298.74" cy="288.40094" r="2.3043478" fill="rgb(132,144,107)" />
<circle cx="293.96414" cy="293.7261" r="2.3043478" fill="rgb(148,149,211)" />
<circle cx="288.9493" cy="298.84064" r="2.2608695" fill="rgb(50,88,154)" />
<circle cx="283.70477" cy="303.73386" r="2.2608695" fill="rgb(165,24,38)" />
<circle cx="278.24036" cy="308.3954" r="2.2608695" fill="rgb(210,41,224)" />
<circle cx="272.56622" cy="312.81543" r="2.2608695" fill="rgb(206,186,38)" />
<circle cx="266.69315" cy="316.98444" r="2.2173913" fill="rgb(111,106,248)" />
<circle cx="260.63214" cy="320.89355" r="2.2173913" fill="rgb(243,179,193)" />
<circle cx="254.3948" cy="324.5342" r="2.2173913" fill="rgb(115,10,98)" />
<circle cx="247.99301" cy="327.8985" r="2.2173913" fill="rgb(207,75,42)" />
<circle cx="241.43901" cy="330.979" r="2.2173913" fill="rgb(36,45,0)" />
<circle cx="234.74539" cy="333.76877" r="2.2173913" fill="rgb(106,173,42)" />
<circle cx="227.92508" cy="336.26154" r="2.2173913" fill="rgb(101,245,136)" />
<circle cx="220.99124" cy="338.45154" r="2.2173913" fill="rgb(154,242,99)" />
<circle cx="213.95734" cy="340.33356" r="2.173913" fill="rgb(48,173,128)" />
<circle cx="206.83708" cy="341.90308" r="2.173913" fill="rgb(255,218,54)" />
<circle cx="199.64433" cy="343.15613" r="2.173913" fill="rgb(197,23,153)" />
<circle cx="192.3932" cy="344.08936" r="2.173913" fill="rgb(10,60,86)" />
<circle cx="185.09792" cy="344.7" r="2.173913" fill="rgb(227,255,157)" />
<circle cx="177.77281" cy="344.98608" r="2.173913" fill="rgb(158,98,13)" />
<circle cx="170.43237" cy="344.94604" r="2.1304348" fill="rgb(137,109,56)" />
<circle cx="163.09113" cy="344.5792" r="2.1304348" fill="rgb(108,157,61)" />
<circle cx="155.76361" cy="343.8853" r="2.1304348" fill="rgb(38,3,225)" />
<circle cx="148.46445" cy="342.8649" r="2.1304348" fill="rgb(193,233,215)" />
<circle cx="141.20816" cy="341.51917" r="2.0869565" fill="rgb(95,159,182)" />
<circle cx="134.00928" cy="339.84985" r="2.0869565" fill="rgb(151,137,137)" />
<circle cx="126.88223" cy="337.85938" r="2.0434783" fill="rgb(10,147,249)" />
</svg>
