<?xml version="1.0" encoding="UTF-8" standalone="no"?>
<!DOCTYPE svg PUBLIC "-//W3C//DTD SVG 1.1//EN" "http://www.w3.org/Graphics/SVG/1.1/DTD/svg11.dtd">
<svg width="360" height="360" viewBox="0 0 360 360" version="1.1" xmlns="http://www.w3.org/2000/svg">
<rect x="0" y="0" width="360" height="360" style="fill:white;"/>
<circle cx="180.0" cy="180.0" r="26.98889" fill="rgb(172,28,134)" />
<circle cx="163.85835" cy="172.03464" r="7.3333335" fill="rgb(208,100,72)" />
<circle cx="147.4588" cy="168.4132" r="7.0" fill="rgb(224,235,202)" />
<circle cx="131.66751" cy="168.1427" r="6.5444446" fill="rgb(187,63,214)" />
<circle cx="116.831055" cy="170.28632" r="6.4444447" fill="rgb(35,155,19)" />
<circle cx="102.996895" cy="174.12128" r="4.8111115" fill="rgb(23,118,172)" />
<circle cx="90.08071" cy="179.1371" r="4.611111" fill="rgb(47,228,147)" />
<circle cx="77.95647" cy="184.98503" r="4.4888887" fill="rgb(84,201,9)" />
<circle cx="66.49643" cy="191.4281" r="4.4555554" fill="rgb(159,39,240)" />
<circle cx="55.586143" cy="198.30403" r="4.333333" fill="rgb(121,182,13)" />
<circle cx="45.128242" cy="205.50006" r="4.1444445" fill="rgb(5,72,20)" />
<circle cx="35.041855" cy="212.93654" r="3.7777777" fill="rgb(66,172,226)" />
<circle cx="25.26057" cy="220.55623" r="3.7555556" fill="rgb(191,237,87)" />
<circle cx="15.730072" cy="228.3173" r="3.5222223" fill="rgb(32,66,94)" />
<circle cx="6.405987" cy="236.18872" r="3.4333334" fill="rgb(7,129,254)" />
<circle cx="-2.74796" cy="244.1471" r="3.3222222" fill="rgb(13,83,20)" />
<circle cx="-11.761466" cy="252.17459" r="3.2333333" fill="rgb(77,214,188)" />
<circle cx="-20.658894" cy="260.25742" r="3.188889" fill="rgb(203,118,14)" />
<circle cx="-29.460258" cy="268.38483" r="3.1222222" fill="rgb(37,108,29)" />
<circle cx="-38.182045" cy="276.54834" r="3.0222223" fill="rgb(44,246,17)" />
<circle cx="-46.83785" cy="284.7412" r="3.0222223" fill="rgb(128,208,96)" />
<circle cx="-55.438896" cy="292.9581" r="2.9222221" fill="rgb(146,53,193)" />
<circle cx="-63.994476" cy="301.19464" r="2.8333333" fill="rgb(252,169,105)" />
<circle cx="-72.512276" cy="309.44733" r="2.7" fill="rgb(168,154,158)" />
<circle cx="-80.99867" cy="317.71332" r="2.688889" fill="rgb(251,123,249)" />
<circle cx="-89.458954" cy="325.9903" r="2.6666667" fill="rgb(178,105,11)" />
<circle cx="-97.89751" cy="334.27634" r="2.6666667" fill="rgb(111,202,119)" />
<circle cx="-106.317986" cy="342.5699" r="2.6" fill="rgb(255,121,156)" />
<circle cx="-114.72341" cy="350.86966" r="2.5444446" fill="rgb(236,69,242)" />
<circle cx="-123.11631" cy="359.1746" r="2.5222223" fill="rgb(164,102,227)" />
<circle cx="-131.49878" cy="367.4838" r="2.4777777" fill="rgb(241,120,213)" />
<circle cx="-139.87256" cy="375.79657" r="2.4444444" fill="rgb(210,34,169)" />
<circle cx="-148.23909" cy="384.1123" r="2.4333334" fill="rgb(134,71,7)" />
<circle cx="-156.59961" cy="392.43048" r="2.4" fill="rgb(204,120,146)" />
<circle cx="-164.9551" cy="400.7507" r="2.3888888" fill="rgb(115,184,52)" />
<circle cx="-173.3064" cy="409.07263" r="2.3777778" fill="rgb(108,23,38)" />
<circle cx="-181.65422" cy="417.396" r="2.3777778" fill="rgb(81,214,33)" />
<circle cx="-189.99915" cy="425.72052" r="2.3777778" fill="rgb(89,67,193)" />
<circle cx="-198.34164" cy="434.04602" r="2.3555555" fill="rgb(82,183,95)" />
<circle cx="-206.68213" cy="442.37234" r="2.3444445" fill="rgb(128,139,176)" />
<circle cx="-215.02094" cy="450.69934" r="2.3444445" fill="rgb(189,110,131)" />
<circle cx="-223.35834" cy="459.02692" r="2.3333333" fill="rgb(81,47,8)" />
<circle cx="-231.69458" cy="467.35495" r="2.3222222" fill="rgb(121,166,168)" />
<circle cx="-240.02985" cy="475.68338" r="2.3222222" fill="rgb(239,192,222)" />
<circle cx="-248.3643" cy="484.01215" r="2.3111112" fill="rgb(243,224,233)" />
<circle cx="-256.6981" cy="492.3412" r="2.3" fill="rgb(158,215,188)" />
<circle cx="-265.0313" cy="500.67047" r="2.2777777" fill="rgb(45,114,118)" />
<circle cx="-273.36404" cy="508.99994" r="2.2555556" fill="rgb(209,98,229)" />
<circle cx="-281.6964" cy="517.3295" r="2.2555556" fill="rgb(28,46,170)" />
<circle cx="-290.02844" cy="525.6593" r="2.2555556" fill="rgb(87,70,135)" />
<circle cx="-298.3602" cy="533.98914" r="2.2555556" fill="rgb(247,22,18)" />
<circle cx="-306.69174" cy="542.3191" r="2.2555556" fill="rgb(1,75,117)" />
<circle cx="-315.02307" cy="550.6491" r="2.2444444" fill="rgb(195,120,188)" />
<circle cx="-323.35425" cy="558.9792" r="2.2333333" fill="rgb(163,49,90)" />
<circle cx="-331.6853" cy="567.3093" r="2.2333333" fill="rgb(236,253,153)" />
<circle cx="-340.01627" cy="575.6395" r="2.2333333" fill="rgb(229,157,236)" />
<circle cx="-348.34714" cy="583.9697" r="2.2333333" fill="rgb(124,133,140)" />
<circle cx="-356.67792" cy="592.3" r="2.2222223" fill="rgb(59,112,149)" />
<circle cx="-365.00864" cy="600.63025" r="2.2222223" fill="rgb(95,216,161)" />
<circle cx="-373.3393" cy="608.9606" r="2.2" fill="rgb(72,247,69)" />
<circle cx="-381.66992" cy="617.2909" r="2.1888888" fill="rgb(180,114,86)" />
<circle cx="-390.00052" cy="625.6212" r="2.1888888" fill="rgb(171,113,33)" />
<circle cx="-398.3311" cy="633.95154" r="2.1777778" fill="rgb(175,175,231)" />
<circle cx="-406.66162" cy="642.2819" r="2.1777778" fill="rgb(7,38,185)" />
<circle cx="-414.99213" cy="650.6123" r="2.1777778" fill="rgb(123,138,11)" />
<circle cx="-423.32263" cy="658.9427" r="2.1777778" fill="rgb(206,255,30)" />
<circle cx="-431.6531" cy="667.2731" r="2.1666667" fill="rgb(47,192,19)" />
<circle cx="-439.98358" cy="675.60345" r="2.1666667" fill="rgb(225,23,20)" />
<circle cx="-448.31403" cy="683.93384" r="2.1555555" fill="rgb(161,207,36)" />
<circle cx="-456.64447" cy="692.2642" r="2.1444445" fill="rgb(43,49,223)" />
<circle cx="-464.9749" cy="700.5946" r="2.1444445" fill="rgb(116,188,247)" />
<circle cx="-473.30536" cy="708.925" r="2.1444445" fill="rgb(92,153,21)" />
<circle cx="-481.63577" cy="717.2554" r="2.1444445" fill="rgb(67,221,191)" />
<circle cx="-489.9662" cy="725.58575" r="2.1444445" fill="rgb(156,89,18)" />
<circle cx="-498.2966" cy="733.91614" r="2.1333334" fill="rgb(178,194,174)" />
<circle cx="-506.627" cy="742.2465" r="2.1333334" fill="rgb(8,26,226)" />
<circle cx="-514.9574" cy="750.5769" r="2.1333334" fill="rgb(218,204,213)" />
<circle cx="-523.2878" cy="758.9073" r="2.1333334" fill="rgb(57,246,93)" />
<circle cx="-531.61816" cy="767.2377" r="2.1333334" fill="rgb(143,23,35)" />
<circle cx="-539.94855" cy="775.56805" r="2.1222222" fill="rgb(170,231,142)" />
<circle cx="-548.27893" cy="783.89844" r="2.1222222" fill="rgb(82,37,175)" />
<circle cx="-556.6093" cy="792.2288" r="2.1222222" fill="rgb(210,245,137)" />
<circle cx="-564.9397" cy="800.5592" r="2.1222222" fill="rgb(133,88,82)" />
<circle cx="-573.2701" cy="808.8896" r="2.1222222" fill="rgb(144,12,214)" />
<circle cx="-581.60046" cy="817.22" r="2.1222222" fill="rgb(157,208,181)" />
<circle cx="-589.93085" cy="825.55035" r="2.1222222" fill="rgb(5,69,233)" />
<circle cx="-598.2612" cy="833.88074" r="2.1111112" fill="rgb(169,42,50)" />
<circle cx="-606.5916" cy="842.2111" r="2.1111112" fill="rgb(80,27,112)" />
<circle cx="-614.922" cy="850.5415" r="2.1" fill="rgb(128,184,105)" />
<circle cx="-623.2524" cy="858.8719" r="2.1" fill="rgb(164,61,217)" />
<circle cx="-631.58276" cy="867.2023" r="2.1" fill="rgb(61,211,120)" />
<circle cx="-639.91315" cy="875.53265" r="2.088889" fill="rgb(201,78,82)" />
<circle cx="-648.2435" cy="883.86304" r="2.088889" fill="rgb(16,213,184)" />
<circle cx="-656.5739" cy="892.1934" r="2.088889" fill="rgb(127,119,252)" />
<circle cx="-664.9043" cy="900.5238" r="2.088889" fill="rgb(74,236,110)" />
<circle cx="-673.2347" cy="908.8542" r="2.088889" fill="rgb(202,34,208)" />
<circle cx="-681.56506" cy="917.1846" r="2.088889" fill="rgb(174,6,120)" />
<circle cx="-689.89545" cy="925.51495" r="2.0777779" fill="rgb(249,38,183)" />
<circle cx="-698.2258" cy="933.84534" r="2.0777779" fill="rgb(254,53,115)" />
<circle cx="-706.5562" cy="942.1757" r="2.0777779" fill="rgb(231,158,99)" />
<circle cx="-714.8866" cy="950.5061" r="2.0777779" fill="rgb(92,86,32)" />
<circle cx="-723.217" cy="958.8365" r="2.0777779" fill="rgb(52,241,68)" />
<circle cx="-731.54736" cy="967.1669" r="2.0666666" fill="rgb(62,174,190)" />
<circle cx="-739.87775" cy="975.49725" r="2.0666666" fill="rgb(97,13,99)" />
<circle cx="-748.2081" cy="983.82764" r="2.0666666" fill="rgb(240,198,210)" />
<circle cx="-756.5385" cy="992.158" r="2.0666666" fill="rgb(249,113,141)" />
<circle cx="-764.8689" cy="1000.4884" r="2.0555556" fill="rgb(207,176,34)" />
<circle cx="-773.1993" cy="1008.8188" r="2.0555556" fill="rgb(203,115,255)" />
<circle cx="-781.52966" cy="1017.1492" r="2.0555556" fill="rgb(51,2,126)" />
<circle cx="-789.86005" cy="1025.4796" r="2.0555556" fill="rgb(23,5,200)" />
<circle cx="-798.1905" cy="1033.81" r="2.0555556" fill="rgb(206,254,254)" />
<circle cx="-806.52094" cy="1042.1405" r="2.0555556" fill="rgb(9,34,105)" />
<circle cx="-814.8514" cy="1050.471" r="2.0555556" fill="rgb(11,108,141)" />
<circle cx="-823.1818" cy="1058.8014" r="2.0555556" fill="rgb(243,10,180)" />
<circle cx="-831.51227" cy="1067.1318" r="2.0444446" fill="rgb(89,81,166)" />
<circle cx="-839.8427" cy="1075.4623" r="2.0444446" fill="rgb(96,17,172)" />
<circle cx="-848.17316" cy="1083.7927" r="2.0444446" fill="rgb(172,231,34)" />
<circle cx="-856.5036" cy="1092.1232" r="2.0444446" fill="rgb(61,51,8)" />
<circle cx="-864.83405" cy="1100.4536" r="2.0444446" fill="rgb(131,140,209)" />
<circle cx="-873.1645" cy="1108.784" r="2.0444446" fill="rgb(35,233,195)" />
<circle cx="-881.49493" cy="1117.1145" r="2.0333333" fill="rgb(41,90,48)" />
<circle cx="-889.8254" cy="1125.445" r="2.0333333" fill="rgb(208,180,183)" />
<circle cx="-898.1558" cy="1133.7754" r="2.0333333" fill="rgb(88,57,226)" />
<circle cx="-906.48627" cy="1142.1058" r="2.0333333" fill="rgb(158,177,229)" />
<circle cx="-914.8167" cy="1150.4363" r="2.0222223" fill="rgb(131,125,253)" />
<circle cx="-923.14716" cy="1158.7667" r="2.0222223" fill="rgb(227,46,151)" />
<circle cx="-931.4776" cy="1167.0972" r="2.011111" fill="rgb(43,99,87)" />
</svg>
