<?xml version="1.0" encoding="UTF-8" standalone="no"?>
<!DOCTYPE svg PUBLIC "-//W3C//DTD SVG 1.1//EN" "http://www.w3.org/Graphics/SVG/1.1/DTD/svg11.dtd">
<svg width="360" height="360" viewBox="0 0 360 360" version="1.1" xmlns="http://www.w3.org/2000/svg">
<rect x="0" y="0" width="360" height="360" style="fill:white;"/>
<circle cx="180.0" cy="180.0" r="99.78261" fill="rgb(46,57,152)" />
<circle cx="291.056" cy="232.30103" r="22.869566" fill="rgb(96,114,105)" />
<circle cx="111.66078" cy="79.60062" r="21.565218" fill="rgb(199,74,123)" />
<circle cx="263.75333" cy="265.64685" r="19.782608" fill="rgb(100,170,199)" />
<circle cx="296.05753" cy="152.47571" r="19.391304" fill="rgb(137,196,187)" />
<circle cx="292.99158" cy="185.68408" r="13.0" fill="rgb(191,224,69)" />
<circle cx="146.0081" cy="73.10458" r="12.217391" fill="rgb(157,58,111)" />
<circle cx="70.05104" cy="160.72845" r="11.73913" fill="rgb(132,41,77)" />
<circle cx="68.92017" cy="189.61482" r="11.608696" fill="rgb(231,230,14)" />
<circle cx="124.35946" cy="276.0653" r="11.130435" fill="rgb(124,48,53)" />
<circle cx="234.36981" cy="276.19357" r="10.391304" fill="rgb(1,5,52)" />
<circle cx="167.8739" cy="71.5496" r="8.956522" fill="rgb(173,153,83)" />
<circle cx="98.225784" cy="108.29973" r="8.869565" fill="rgb(205,235,161)" />
<circle cx="110.32349" cy="262.46768" r="7.9565215" fill="rgb(128,101,161)" />
<circle cx="205.33817" cy="284.4629" r="7.6086955" fill="rgb(143,53,126)" />
<circle cx="190.52824" cy="287.0454" r="7.173913" fill="rgb(15,9,3)" />
<circle cx="175.49313" cy="287.53748" r="6.826087" fill="rgb(201,40,153)" />
<circle cx="269.34067" cy="121.961586" r="6.652174" fill="rgb(190,194,239)" />
<circle cx="228.60162" cy="85.48659" r="6.3913045" fill="rgb(32,189,88)" />
<circle cx="183.73334" cy="74.008156" r="6.0" fill="rgb(47,105,169)" />
<circle cx="196.39737" cy="75.15697" r="6.0" fill="rgb(72,252,120)" />
<circle cx="86.264534" cy="131.60165" r="5.608696" fill="rgb(9,210,199)" />
<circle cx="80.15831" cy="146.1686" r="5.2608695" fill="rgb(35,134,202)" />
<circle cx="148.24548" cy="279.68787" r="4.7391305" fill="rgb(104,106,113)" />
<circle cx="103.455086" cy="251.69583" r="4.695652" fill="rgb(33,153,95)" />
<circle cx="164.5359" cy="283.3932" r="4.608696" fill="rgb(77,74,47)" />
<circle cx="97.2887" cy="244.55768" r="4.608696" fill="rgb(84,120,181)" />
<circle cx="218.79938" cy="276.79147" r="4.347826" fill="rgb(72,231,254)" />
<circle cx="91.78611" cy="236.89116" r="4.130435" fill="rgb(173,252,80)" />
<circle cx="264.64618" cy="240.41254" r="4.043478" fill="rgb(84,160,191)" />
<circle cx="281.909" cy="199.60992" r="3.8695652" fill="rgb(237,247,142)" />
<circle cx="280.05573" cy="207.6975" r="3.7391305" fill="rgb(223,187,160)" />
<circle cx="139.40152" cy="276.47382" r="3.695652" fill="rgb(217,16,193)" />
<circle cx="272.25336" cy="133.19235" r="3.5652175" fill="rgb(238,247,226)" />
<circle cx="275.332" cy="139.74217" r="3.521739" fill="rgb(114,119,214)" />
<circle cx="283.31424" cy="171.74323" r="3.478261" fill="rgb(245,77,248)" />
<circle cx="156.31815" cy="281.8667" r="3.478261" fill="rgb(52,253,222)" />
<circle cx="87.48876" cy="229.6826" r="3.478261" fill="rgb(2,91,30)" />
<circle cx="251.25931" cy="105.24288" r="3.3913045" fill="rgb(178,109,184)" />
<circle cx="244.22784" cy="99.17916" r="3.347826" fill="rgb(202,55,109)" />
<circle cx="256.33667" cy="110.38354" r="3.347826" fill="rgb(31,116,169)" />
<circle cx="236.6834" cy="93.77394" r="3.304348" fill="rgb(234,124,137)" />
<circle cx="261.04388" cy="115.8684" r="3.2608695" fill="rgb(213,45,68)" />
<circle cx="84.21014" cy="223.10847" r="3.2608695" fill="rgb(193,252,17)" />
<circle cx="81.39816" cy="216.31897" r="3.2173913" fill="rgb(125,29,139)" />
<circle cx="212.58412" cy="82.22774" r="3.173913" fill="rgb(46,243,12)" />
<circle cx="204.66129" cy="79.9764" r="3.0869565" fill="rgb(136,206,154)" />
<circle cx="79.066925" cy="209.34717" r="3.0" fill="rgb(18,111,52)" />
<circle cx="77.4603" cy="203.25203" r="3.0" fill="rgb(174,179,45)" />
<circle cx="74.7986" cy="176.11978" r="3.0" fill="rgb(4,152,124)" />
<circle cx="90.953125" cy="123.35298" r="3.0" fill="rgb(154,125,68)" />
<circle cx="218.91034" cy="81.155334" r="3.0" fill="rgb(166,247,202)" />
<circle cx="79.97726" cy="137.70767" r="2.9565217" fill="rgb(213,2,18)" />
<circle cx="205.81741" cy="73.79172" r="2.9130435" fill="rgb(130,25,205)" />
<circle cx="212.145" cy="75.50122" r="2.9130435" fill="rgb(57,147,249)" />
<circle cx="237.9848" cy="87.1588" r="2.9130435" fill="rgb(15,187,35)" />
<circle cx="243.46204" cy="90.77634" r="2.9130435" fill="rgb(170,176,35)" />
<circle cx="248.71405" cy="94.71671" r="2.8695652" fill="rgb(43,197,7)" />
<circle cx="253.72183" cy="98.96594" r="2.8695652" fill="rgb(166,99,206)" />
<circle cx="135.53572" cy="87.453285" r="2.7826087" fill="rgb(202,245,161)" />
<circle cx="258.46725" cy="103.508896" r="2.7391305" fill="rgb(4,105,241)" />
<circle cx="262.9331" cy="108.32941" r="2.7391305" fill="rgb(212,79,1)" />
<circle cx="276.66547" cy="128.09163" r="2.6956522" fill="rgb(39,115,177)" />
<circle cx="279.62985" cy="133.96562" r="2.6956522" fill="rgb(236,133,125)" />
<circle cx="287.49878" cy="203.67902" r="2.6956522" fill="rgb(26,101,226)" />
<circle cx="217.35022" cy="284.08182" r="2.6956522" fill="rgb(17,5,253)" />
<circle cx="159.59207" cy="288.9506" r="2.652174" fill="rgb(24,58,98)" />
<circle cx="154.16945" cy="287.81946" r="2.652174" fill="rgb(16,186,124)" />
<circle cx="109.542175" cy="105.529396" r="2.6086955" fill="rgb(236,149,33)" />
<circle cx="240.6139" cy="264.70496" r="2.5652175" fill="rgb(142,42,50)" />
<circle cx="266.42932" cy="112.54616" r="2.5652175" fill="rgb(23,58,4)" />
<circle cx="142.47705" cy="284.3862" r="2.5652175" fill="rgb(206,255,93)" />
<circle cx="96.121185" cy="252.97537" r="2.5652175" fill="rgb(165,215,114)" />
<circle cx="89.86851" cy="245.17192" r="2.5652175" fill="rgb(93,96,138)" />
<circle cx="96.23984" cy="121.05997" r="2.521739" fill="rgb(199,138,41)" />
<circle cx="84.916954" cy="237.78558" r="2.521739" fill="rgb(19,177,222)" />
<circle cx="82.12718" cy="232.97578" r="2.521739" fill="rgb(201,91,189)" />
<circle cx="79.5806" cy="228.03152" r="2.521739" fill="rgb(73,250,95)" />
<circle cx="77.28364" cy="222.96507" r="2.521739" fill="rgb(217,245,47)" />
<circle cx="90.89771" cy="117.73622" r="2.478261" fill="rgb(68,52,139)" />
<circle cx="137.29999" cy="282.4046" r="2.478261" fill="rgb(134,224,223)" />
<circle cx="75.24218" cy="217.78906" r="2.478261" fill="rgb(133,198,146)" />
<circle cx="73.46143" cy="212.51634" r="2.478261" fill="rgb(236,161,61)" />
<circle cx="71.94594" cy="207.16006" r="2.478261" fill="rgb(153,247,33)" />
<circle cx="68.54581" cy="175.13907" r="2.478261" fill="rgb(91,28,98)" />
<circle cx="83.72183" cy="123.15917" r="2.478261" fill="rgb(152,235,62)" />
<circle cx="190.31223" cy="68.1044" r="2.4347825" fill="rgb(139,6,35)" />
<circle cx="217.7024" cy="74.01135" r="2.4347825" fill="rgb(4,193,245)" />
<circle cx="85.89451" cy="139.8458" r="2.3913043" fill="rgb(95,100,50)" />
<circle cx="222.9592" cy="76.003876" r="2.3913043" fill="rgb(254,135,110)" />
<circle cx="224.39485" cy="284.66837" r="2.3913043" fill="rgb(123,33,166)" />
<circle cx="183.56973" cy="293.82315" r="2.347826" fill="rgb(224,92,172)" />
<circle cx="167.6527" cy="293.27814" r="2.347826" fill="rgb(136,118,103)" />
<circle cx="148.6529" cy="289.64087" r="2.347826" fill="rgb(44,222,156)" />
<circle cx="99.77257" cy="261.39026" r="2.347826" fill="rgb(211,77,238)" />
<circle cx="90.56389" cy="251.24402" r="2.347826" fill="rgb(43,59,67)" />
<circle cx="84.488106" cy="242.94676" r="2.347826" fill="rgb(89,223,136)" />
<circle cx="68.01329" cy="204.21022" r="2.3043478" fill="rgb(19,230,84)" />
<circle cx="70.19221" cy="146.41612" r="2.3043478" fill="rgb(234,108,220)" />
<circle cx="71.98337" cy="140.96446" r="2.3043478" fill="rgb(218,33,95)" />
<circle cx="74.04505" cy="135.60791" r="2.3043478" fill="rgb(15,208,64)" />
<circle cx="76.372246" cy="130.35991" r="2.3043478" fill="rgb(137,120,93)" />
<circle cx="78.95925" cy="125.23358" r="2.2608695" fill="rgb(182,106,130)" />
<circle cx="83.00533" cy="118.28557" r="2.2608695" fill="rgb(56,103,70)" />
<circle cx="86.188774" cy="113.50311" r="2.2608695" fill="rgb(59,215,114)" />
<circle cx="177.1515" cy="64.581726" r="2.2608695" fill="rgb(152,197,62)" />
<circle cx="181.76704" cy="64.540115" r="2.2173913" fill="rgb(126,246,104)" />
<circle cx="186.38136" cy="64.68304" r="2.2173913" fill="rgb(32,116,72)" />
<circle cx="194.4313" cy="65.37651" r="2.2173913" fill="rgb(206,55,160)" />
<circle cx="199.00426" cy="66.02516" r="2.2173913" fill="rgb(136,238,57)" />
<circle cx="203.54843" cy="66.85621" r="2.2173913" fill="rgb(204,210,13)" />
<circle cx="208.05652" cy="67.868385" r="2.2173913" fill="rgb(23,40,187)" />
<circle cx="212.52133" cy="69.06014" r="2.2173913" fill="rgb(69,8,178)" />
<circle cx="227.7048" cy="74.616295" r="2.2173913" fill="rgb(133,181,71)" />
<circle cx="231.88754" cy="76.58927" r="2.173913" fill="rgb(254,155,248)" />
<circle cx="235.98883" cy="78.72821" r="2.173913" fill="rgb(79,61,27)" />
<circle cx="240.00201" cy="81.029755" r="2.173913" fill="rgb(233,169,78)" />
<circle cx="243.9207" cy="83.490295" r="2.173913" fill="rgb(182,57,158)" />
<circle cx="247.73856" cy="86.10594" r="2.173913" fill="rgb(64,56,12)" />
<circle cx="251.44946" cy="88.87256" r="2.173913" fill="rgb(162,2,229)" />
<circle cx="255.04745" cy="91.7858" r="2.1304348" fill="rgb(149,165,194)" />
<circle cx="258.52673" cy="94.841034" r="2.1304348" fill="rgb(218,14,232)" />
<circle cx="261.8817" cy="98.03344" r="2.1304348" fill="rgb(0,161,176)" />
<circle cx="265.10693" cy="101.35796" r="2.1304348" fill="rgb(160,73,87)" />
<circle cx="159.77602" cy="79.20997" r="2.0869565" fill="rgb(23,197,141)" />
<circle cx="214.82686" cy="288.276" r="2.0869565" fill="rgb(165,137,18)" />
<circle cx="198.27652" cy="292.3371" r="2.0434783" fill="rgb(230,67,227)" />
</svg>
