<?xml version="1.0" encoding="UTF-8" standalone="no"?>
<!DOCTYPE svg PUBLIC "-//W3C//DTD SVG 1.1//EN" "http://www.w3.org/Graphics/SVG/1.1/DTD/svg11.dtd">
<svg width="360" height="360" viewBox="0 0 360 360" version="1.1" xmlns="http://www.w3.org/2000/svg">
<rect x="0" y="0" width="360" height="360" style="fill:white;"/>
<circle cx="180.0" cy="180.0" r="54.97778" fill="rgb(111,209,212)" />
<circle cx="197.3522" cy="110.11775" r="15.666667" fill="rgb(148,52,67)" />
<circle cx="250.49527" cy="176.88017" r="15.0" fill="rgb(72,9,167)" />
<circle cx="188.72003" cy="248.63162" r="14.088889" fill="rgb(112,243,121)" />
<circle cx="230.73685" cy="226.73598" r="13.888889" fill="rgb(95,39,144)" />
<circle cx="152.04832" cy="239.48726" r="10.622223" fill="rgb(248,214,203)" />
<circle cx="131.00256" cy="223.98227" r="10.222222" fill="rgb(215,107,6)" />
<circle cx="117.63341" cy="201.46584" r="9.9777775" fill="rgb(165,127,131)" />
<circle cx="237.35474" cy="149.40056" r="9.911111" fill="rgb(50,191,66)" />
<circle cx="220.83748" cy="129.56961" r="9.666666" fill="rgb(13,86,102)" />
<circle cx="122.073555" cy="151.92097" r="9.288889" fill="rgb(31,104,165)" />
<circle cx="209.28036" cy="236.5188" r="8.555555" fill="rgb(156,85,100)" />
<circle cx="115.826706" cy="176.7026" r="8.511111" fill="rgb(75,80,115)" />
<circle cx="240.72421" cy="198.3031" r="8.044445" fill="rgb(137,214,116)" />
<circle cx="132.89633" cy="135.9968" r="7.866667" fill="rgb(78,201,134)" />
<circle cx="147.93083" cy="126.08531" r="7.6444445" fill="rgb(14,58,5)" />
<circle cx="165.27689" cy="118.93198" r="7.4666667" fill="rgb(121,179,4)" />
<circle cx="107.24739" cy="161.07224" r="7.377778" fill="rgb(67,69,222)" />
<circle cx="149.50185" cy="111.00646" r="7.2444444" fill="rgb(74,228,62)" />
<circle cx="171.24434" cy="104.98915" r="7.0444446" fill="rgb(157,87,249)" />
<circle cx="238.61438" cy="131.92473" r="7.0444446" fill="rgb(115,65,140)" />
<circle cx="166.51651" cy="249.79388" r="6.8444443" fill="rgb(63,68,102)" />
<circle cx="249.72043" cy="210.56268" r="6.6666665" fill="rgb(62,192,251)" />
<circle cx="134.07864" cy="241.36325" r="6.4" fill="rgb(12,250,158)" />
<circle cx="113.70721" cy="218.69315" r="6.377778" fill="rgb(61,140,78)" />
<circle cx="103.757965" cy="189.836" r="6.3333335" fill="rgb(50,243,53)" />
<circle cx="130.3478" cy="120.93546" r="6.3333335" fill="rgb(166,103,220)" />
<circle cx="255.82542" cy="197.77957" r="6.2" fill="rgb(29,13,239)" />
<circle cx="220.18909" cy="246.98051" r="6.088889" fill="rgb(175,184,182)" />
<circle cx="114.40051" cy="136.1781" r="6.0444446" fill="rgb(124,234,4)" />
<circle cx="219.2921" cy="111.093254" r="5.9555554" fill="rgb(87,12,235)" />
<circle cx="254.6336" cy="152.54344" r="5.888889" fill="rgb(25,14,129)" />
<circle cx="249.90962" cy="138.53656" r="5.866667" fill="rgb(249,21,7)" />
<circle cx="172.3108" cy="261.5528" r="5.8" fill="rgb(161,25,60)" />
<circle cx="156.24438" cy="258.45444" r="5.7777777" fill="rgb(3,48,96)" />
<circle cx="141.10323" cy="252.2213" r="5.7555556" fill="rgb(58,57,64)" />
<circle cx="121.43497" cy="237.56035" r="5.7555556" fill="rgb(138,160,232)" />
<circle cx="103.535095" cy="210.25082" r="5.7555556" fill="rgb(165,84,161)" />
<circle cx="101.56492" cy="173.00792" r="5.711111" fill="rgb(51,156,109)" />
<circle cx="104.817345" cy="146.12506" r="5.688889" fill="rgb(160,153,248)" />
<circle cx="211.68718" cy="257.34592" r="5.688889" fill="rgb(99,61,60)" />
<circle cx="234.47485" cy="119.79184" r="5.6666665" fill="rgb(152,190,61)" />
<circle cx="117.73169" cy="123.0813" r="5.6444445" fill="rgb(71,233,16)" />
<circle cx="160.71004" cy="97.694664" r="5.6444445" fill="rgb(115,226,210)" />
<circle cx="250.38242" cy="228.06184" r="5.6222224" fill="rgb(46,24,197)" />
<circle cx="233.0882" cy="246.78326" r="5.6" fill="rgb(80,125,5)" />
<circle cx="111.32107" cy="231.38493" r="5.5555553" fill="rgb(173,86,224)" />
<circle cx="96.61993" cy="200.60944" r="5.5111113" fill="rgb(41,238,145)" />
<circle cx="137.65968" cy="104.84186" r="5.5111113" fill="rgb(252,160,188)" />
<circle cx="178.87637" cy="93.599464" r="5.5111113" fill="rgb(64,186,188)" />
<circle cx="201.9577" cy="264.43475" r="5.5111113" fill="rgb(93,191,2)" />
<circle cx="92.266045" cy="182.20314" r="5.5111113" fill="rgb(171,59,131)" />
<circle cx="266.31046" cy="190.0837" r="5.4888887" fill="rgb(132,13,176)" />
<circle cx="93.52065" cy="164.7181" r="5.4666667" fill="rgb(88,224,3)" />
<circle cx="230.22" cy="107.25608" r="5.4666667" fill="rgb(69,198,205)" />
<circle cx="249.54321" cy="125.29396" r="5.4666667" fill="rgb(74,225,45)" />
<circle cx="265.4688" cy="156.66554" r="5.4666667" fill="rgb(166,122,205)" />
<circle cx="263.8783" cy="209.0602" r="5.4444447" fill="rgb(212,47,36)" />
<circle cx="246.0246" cy="239.50871" r="5.4444447" fill="rgb(101,13,46)" />
<circle cx="183.31508" cy="269.0537" r="5.4" fill="rgb(113,104,33)" />
<circle cx="125.038475" cy="250.40424" r="5.3777776" fill="rgb(235,166,168)" />
<circle cx="101.85865" cy="223.49771" r="5.3777776" fill="rgb(133,15,184)" />
<circle cx="123.60655" cy="110.070114" r="5.3555555" fill="rgb(93,251,51)" />
<circle cx="146.76056" cy="96.44712" r="5.3555555" fill="rgb(28,20,89)" />
<circle cx="216.87729" cy="97.73517" r="5.3555555" fill="rgb(194,190,4)" />
<circle cx="261.38504" cy="140.75327" r="5.3555555" fill="rgb(34,12,73)" />
<circle cx="225.11288" cy="258.78403" r="5.3333335" fill="rgb(17,94,59)" />
<circle cx="163.71027" cy="269.51752" r="5.3333335" fill="rgb(242,80,88)" />
<circle cx="146.22818" cy="264.54996" r="5.311111" fill="rgb(26,6,120)" />
<circle cx="92.86391" cy="152.15414" r="5.288889" fill="rgb(69,98,128)" />
<circle cx="100.0832" cy="135.36888" r="5.288889" fill="rgb(241,183,154)" />
<circle cx="192.69386" cy="89.00059" r="5.288889" fill="rgb(99,93,99)" />
<circle cx="271.451" cy="167.84694" r="5.288889" fill="rgb(200,49,19)" />
<circle cx="262.4926" cy="221.68771" r="5.288889" fill="rgb(189,59,54)" />
<circle cx="104.357216" cy="125.24897" r="5.266667" fill="rgb(209,51,167)" />
<circle cx="166.54654" cy="87.36309" r="5.266667" fill="rgb(179,52,22)" />
<circle cx="203.71442" cy="89.32584" r="5.266667" fill="rgb(64,225,39)" />
<circle cx="244.38373" cy="111.692406" r="5.266667" fill="rgb(107,137,169)" />
<circle cx="274.08792" cy="178.59685" r="5.266667" fill="rgb(118,76,123)" />
<circle cx="133.40318" cy="262.4466" r="5.2444444" fill="rgb(44,177,51)" />
<circle cx="111.05568" cy="245.05199" r="5.2444444" fill="rgb(140,102,195)" />
<circle cx="91.056854" cy="213.10669" r="5.2444444" fill="rgb(130,25,94)" />
<circle cx="86.19543" cy="194.7843" r="5.2444444" fill="rgb(161,49,119)" />
<circle cx="274.0135" cy="199.28264" r="5.2444444" fill="rgb(199,168,137)" />
<circle cx="214.66821" cy="269.7989" r="5.2444444" fill="rgb(13,151,243)" />
<circle cx="196.14536" cy="274.9534" r="5.2444444" fill="rgb(100,16,238)" />
<circle cx="83.34475" cy="174.10739" r="5.2222223" fill="rgb(137,136,220)" />
<circle cx="109.72694" cy="113.08402" r="5.2222223" fill="rgb(125,27,203)" />
<circle cx="102.442154" cy="237.64316" r="5.2" fill="rgb(102,135,229)" />
<circle cx="132.59998" cy="95.22933" r="5.2" fill="rgb(5,239,165)" />
<circle cx="179.04535" cy="82.73792" r="5.2" fill="rgb(141,23,99)" />
<circle cx="261.57153" cy="126.49274" r="5.177778" fill="rgb(24,5,63)" />
<circle cx="259.70618" cy="236.84558" r="5.177778" fill="rgb(220,70,38)" />
<circle cx="246.86234" cy="251.59055" r="5.177778" fill="rgb(172,141,114)" />
<circle cx="175.21152" cy="278.07166" r="5.177778" fill="rgb(242,253,36)" />
<circle cx="82.88266" cy="162.51866" r="5.177778" fill="rgb(233,34,233)" />
<circle cx="151.4424" cy="85.21357" r="5.177778" fill="rgb(133,194,79)" />
<circle cx="228.21555" cy="93.276634" r="5.1555557" fill="rgb(156,104,232)" />
<circle cx="272.93597" cy="144.66393" r="5.1555557" fill="rgb(239,116,159)" />
<circle cx="274.0344" cy="212.9151" r="5.1555557" fill="rgb(16,149,61)" />
<circle cx="239.1241" cy="260.4032" r="5.1555557" fill="rgb(166,201,234)" />
<circle cx="153.6967" cy="276.5416" r="5.1555557" fill="rgb(49,146,212)" />
<circle cx="118.10489" cy="258.76678" r="5.133333" fill="rgb(218,174,171)" />
<circle cx="92.21556" cy="228.49951" r="5.133333" fill="rgb(145,121,234)" />
<circle cx="87.20422" cy="141.27895" r="5.133333" fill="rgb(26,8,202)" />
<circle cx="117.04025" cy="101.4161" r="5.133333" fill="rgb(140,12,132)" />
<circle cx="239.10394" cy="98.01445" r="5.111111" fill="rgb(63,179,40)" />
<circle cx="278.21832" cy="155.32486" r="5.111111" fill="rgb(6,38,153)" />
<circle cx="230.22726" cy="268.368" r="5.111111" fill="rgb(7,30,118)" />
<circle cx="141.89862" cy="274.51315" r="5.111111" fill="rgb(96,73,186)" />
<circle cx="90.76222" cy="129.78937" r="5.111111" fill="rgb(224,178,206)" />
<circle cx="194.51854" cy="78.29158" r="5.111111" fill="rgb(153,249,253)" />
<circle cx="214.45596" cy="83.14951" r="5.111111" fill="rgb(253,47,134)" />
<circle cx="256.78006" cy="111.431175" r="5.111111" fill="rgb(122,176,203)" />
<circle cx="282.25806" cy="166.74251" r="5.088889" fill="rgb(28,220,164)" />
<circle cx="282.91095" cy="187.32767" r="5.088889" fill="rgb(245,40,127)" />
<circle cx="272.03525" cy="226.87917" r="5.088889" fill="rgb(145,56,84)" />
<circle cx="79.79842" cy="207.76805" r="5.088889" fill="rgb(155,29,60)" />
<circle cx="76.221565" cy="187.31033" r="5.088889" fill="rgb(1,138,118)" />
<circle cx="95.756096" cy="118.61302" r="5.088889" fill="rgb(125,212,246)" />
<circle cx="165.31569" cy="76.56954" r="5.0666666" fill="rgb(200,58,171)" />
<circle cx="209.35593" cy="281.15833" r="5.0666666" fill="rgb(213,148,9)" />
<circle cx="188.67717" cy="285.03152" r="5.0666666" fill="rgb(168,69,105)" />
<circle cx="127.76745" cy="271.73404" r="5.0666666" fill="rgb(180,42,70)" />
<circle cx="102.92671" cy="252.25879" r="5.0444446" fill="rgb(15,235,198)" />
<circle cx="136.32458" cy="83.20115" r="5.0444446" fill="rgb(151,141,139)" />
<circle cx="273.85178" cy="129.3902" r="5.022222" fill="rgb(145,228,176)" />
</svg>
