<?xml version="1.0" encoding="UTF-8" standalone="no"?>
<!DOCTYPE svg PUBLIC "-//W3C//DTD SVG 1.1//EN" "http://www.w3.org/Graphics/SVG/1.1/DTD/svg11.dtd">
<svg width="360" height="360" viewBox="0 0 360 360" version="1.1" xmlns="http://www.w3.org/2000/svg">
<rect x="0" y="0" width="360" height="360" style="fill:white;"/>
<circle cx="180.0" cy="180.0" r="26.98889" fill="rgb(187,59,194)" />
<circle cx="89.13624" cy="60.981377" r="7.3333335" fill="rgb(164,2,125)" />
<circle cx="44.140385" cy="20.659603" r="7.0" fill="rgb(223,192,63)" />
<circle cx="21.85838" cy="6.9991727" r="6.5444446" fill="rgb(228,81,52)" />
<circle cx="10.824299" cy="2.3712177" r="6.4444447" fill="rgb(81,0,195)" />
<circle cx="5.360207" cy="0.80333406" r="4.8111115" fill="rgb(19,137,150)" />
<circle cx="2.6543818" cy="0.27215788" r="4.611111" fill="rgb(72,117,71)" />
<circle cx="1.3144534" cy="0.092203125" r="4.4888887" fill="rgb(174,179,68)" />
<circle cx="0.6509191" cy="0.031237077" r="4.4555554" fill="rgb(213,110,9)" />
<circle cx="0.322336" cy="0.010582667" r="4.333333" fill="rgb(29,6,32)" />
<circle cx="0.15962121" cy="0.0035852536" r="4.1444445" fill="rgb(217,106,138)" />
<circle cx="0.07904464" cy="0.0012146317" r="3.7777777" fill="rgb(11,16,46)" />
<circle cx="0.039143015" cy="0.00041149955" r="3.7555556" fill="rgb(105,68,249)" />
<circle cx="0.019383674" cy="0.00013941005" r="3.5222223" fill="rgb(37,27,141)" />
<circle cx="0.009598821" cy="0.0000472301" r="3.4333334" fill="rgb(210,95,143)" />
<circle cx="0.004753349" cy="0.00001600087" r="3.3222222" fill="rgb(52,206,88)" />
<circle cx="0.0023538647" cy="0.0000054208617" r="3.2333333" fill="rgb(127,151,230)" />
<circle cx="0.001165637" cy="0.000001836509" r="3.188889" fill="rgb(141,200,228)" />
<circle cx="0.000577225" cy="0.00000062218254" r="3.1222222" fill="rgb(220,218,164)" />
<circle cx="0.0002858426" cy="0.00000021078638" r="3.0222223" fill="rgb(202,221,3)" />
<circle cx="0.00014154964" cy="0.00000007141136" r="3.0222223" fill="rgb(229,139,3)" />
<circle cx="0.00007009557" cy="0.000000024193128" r="2.9222221" fill="rgb(160,228,255)" />
<circle cx="0.000034711422" cy="0.000000008196279" r="2.8333333" fill="rgb(240,214,17)" />
<circle cx="0.000017189142" cy="0.00000000277678" r="2.7" fill="rgb(0,87,168)" />
<circle cx="0.000008512086" cy="0.0000000009407326" r="2.688889" fill="rgb(23,127,57)" />
<circle cx="0.0000042151964" cy="0.0000000003187065" r="2.6666667" fill="rgb(237,93,181)" />
<circle cx="0.0000020873708" cy="0.000000000107973123" r="2.6666667" fill="rgb(251,16,29)" />
<circle cx="0.0000010336688" cy="0.000000000036579722" r="2.6" fill="rgb(226,12,234)" />
<circle cx="0.0000005118742" cy="0.000000000012392677" r="2.5444446" fill="rgb(105,239,116)" />
<circle cx="0.0000002534808" cy="0.0000000000041984584" r="2.5222223" fill="rgb(27,153,124)" />
<circle cx="0.00000012552404" cy="0.0000000000014223766" r="2.4777777" fill="rgb(170,47,158)" />
<circle cx="0.00000006215967" cy="0.0000000000004818805" r="2.4444444" fill="rgb(232,223,15)" />
<circle cx="0.000000030781553" cy="0.0000000000001632541" r="2.4333334" fill="rgb(8,138,12)" />
<circle cx="0.000000015243067" cy="0.000000000000055308107" r="2.4" fill="rgb(135,23,94)" />
<circle cx="0.000000007548387" cy="0.000000000000018737582" r="2.3888888" fill="rgb(21,54,12)" />
<circle cx="0.0000000037379713" cy="0.00000000000000634802" r="2.3777778" fill="rgb(5,252,51)" />
<circle cx="0.0000000018510484" cy="0.0000000000000021506167" r="2.3777778" fill="rgb(202,219,99)" />
<circle cx="0.0000000009166417" cy="0.00000000000000072859757" r="2.3777778" fill="rgb(96,41,85)" />
<circle cx="0.0000000004539222" cy="0.00000000000000024683824" r="2.3555555" fill="rgb(201,209,150)" />
<circle cx="0.00000000022478289" cy="0.0000000000000000836252" r="2.3444445" fill="rgb(55,4,203)" />
<circle cx="0.00000000011131279" cy="0.000000000000000028331002" r="2.3444445" fill="rgb(230,169,230)" />
<circle cx="0.000000000055122244" cy="0.000000000000000009598131" r="2.3333333" fill="rgb(93,201,44)" />
<circle cx="0.000000000027296608" cy="0.000000000000000003251707" r="2.3222222" fill="rgb(1,6,194)" />
<circle cx="0.000000000013517317" cy="0.0000000000000000011016309" r="2.3222222" fill="rgb(236,218,125)" />
<circle cx="0.000000000006693793" cy="0.0000000000000000003732165" r="2.3111112" fill="rgb(126,225,107)" />
<circle cx="0.0000000000033147753" cy="0.00000000000000000012644032" r="2.3" fill="rgb(229,234,249)" />
<circle cx="0.0000000000016414811" cy="0.000000000000000000042836143" r="2.2777777" fill="rgb(21,14,246)" />
<circle cx="0.00000000000081286367" cy="0.000000000000000000014512262" r="2.2555556" fill="rgb(1,69,223)" />
<circle cx="0.00000000000040253117" cy="0.0000000000000000000049165426" r="2.2555556" fill="rgb(244,126,243)" />
<circle cx="0.00000000000019933398" cy="0.0000000000000000000016656531" r="2.2555556" fill="rgb(102,97,195)" />
<circle cx="0.00000000000009871046" cy="0.00000000000000000000056429904" r="2.2555556" fill="rgb(145,254,141)" />
<circle cx="0.000000000000048881553" cy="0.0000000000000000000001911763" r="2.2555556" fill="rgb(184,132,94)" />
<circle cx="0.00000000000002420621" cy="0.000000000000000000000064767746" r="2.2444444" fill="rgb(255,56,238)" />
<circle cx="0.000000000000011986948" cy="0.00000000000000000000002194237" r="2.2333333" fill="rgb(145,5,223)" />
<circle cx="0.0000000000000059359523" cy="0.000000000000000000000007433755" r="2.2333333" fill="rgb(245,114,169)" />
<circle cx="0.0000000000000029394915" cy="0.000000000000000000000002518448" r="2.2333333" fill="rgb(130,149,246)" />
<circle cx="0.0000000000000014556401" cy="0.0000000000000000000000008532135" r="2.2333333" fill="rgb(167,202,91)" />
<circle cx="0.00000000000000072083494" cy="0.0000000000000000000000002890563" r="2.2222223" fill="rgb(17,246,230)" />
<circle cx="0.00000000000000035695842" cy="0.00000000000000000000000009792807" r="2.2222223" fill="rgb(58,47,192)" />
<circle cx="0.0000000000000001767663" cy="0.000000000000000000000000033176602" r="2.2" fill="rgb(106,170,154)" />
<circle cx="0.00000000000000008753491" cy="0.0000000000000000000000000112397495" r="2.1888888" fill="rgb(99,59,178)" />
<circle cx="0.000000000000000043347404" cy="0.0000000000000000000000000038078636" r="2.1888888" fill="rgb(126,201,91)" />
<circle cx="0.000000000000000021465693" cy="0.0000000000000000000000000012900487" r="2.1777778" fill="rgb(123,128,142)" />
<circle cx="0.00000000000000001062984" cy="0.0000000000000000000000000004370497" r="2.1777778" fill="rgb(241,245,73)" />
<circle cx="0.000000000000000005263911" cy="0.00000000000000000000000000014806607" r="2.1777778" fill="rgb(0,125,244)" />
<circle cx="0.0000000000000000026066957" cy="0.00000000000000000000000000005016263" r="2.1777778" fill="rgb(141,249,174)" />
<circle cx="0.0000000000000000012908391" cy="0.000000000000000000000000000016994368" r="2.1666667" fill="rgb(197,129,6)" />
<circle cx="0.00000000000000000063922527" cy="0.0000000000000000000000000000057574446" r="2.1666667" fill="rgb(238,152,60)" />
<circle cx="0.00000000000000000031654522" cy="0.0000000000000000000000000000019505384" r="2.1555555" fill="rgb(174,13,209)" />
<circle cx="0.00000000000000000015675362" cy="0.00000000000000000000000000000066081398" r="2.1444445" fill="rgb(216,133,239)" />
<circle cx="0.000000000000000000077624606" cy="0.00000000000000000000000000000022387415" r="2.1444445" fill="rgb(140,139,135)" />
<circle cx="0.000000000000000000038439807" cy="0.0000000000000000000000000000000758453" r="2.1444445" fill="rgb(245,30,233)" />
<circle cx="0.000000000000000000019035444" cy="0.000000000000000000000000000000025695284" r="2.1444445" fill="rgb(216,135,149)" />
<circle cx="0.000000000000000000009426377" cy="0.000000000000000000000000000000008705188" r="2.1444445" fill="rgb(10,128,196)" />
<circle cx="0.0000000000000000000046679547" cy="0.000000000000000000000000000000002949191" r="2.1333334" fill="rgb(177,70,138)" />
<circle cx="0.0000000000000000000023115774" cy="0.0000000000000000000000000000000009991429" r="2.1333334" fill="rgb(126,124,131)" />
<circle cx="0.0000000000000000000011446963" cy="0.00000000000000000000000000000000033849508" r="2.1333334" fill="rgb(251,243,42)" />
<circle cx="0.00000000000000000000056685515" cy="0.0000000000000000000000000000000001146772" r="2.1333334" fill="rgb(235,50,232)" />
<circle cx="0.00000000000000000000028070743" cy="0.000000000000000000000000000000000038850966" r="2.1333334" fill="rgb(187,68,125)" />
<circle cx="0.00000000000000000000013900671" cy="0.000000000000000000000000000000000013162142" r="2.1222222" fill="rgb(37,230,36)" />
<circle cx="0.000000000000000000000068836306" cy="0.0000000000000000000000000000000000044591418" r="2.1222222" fill="rgb(213,169,82)" />
<circle cx="0.00000000000000000000003408783" cy="0.0000000000000000000000000000000000015106923" r="2.1222222" fill="rgb(217,201,174)" />
<circle cx="0.000000000000000000000016880339" cy="0.00000000000000000000000000000000000051180057" r="2.1222222" fill="rgb(95,64,166)" />
<circle cx="0.000000000000000000000008359166" cy="0.00000000000000000000000000000000000017339057" r="2.1222222" fill="rgb(68,40,173)" />
<circle cx="0.0000000000000000000000041394703" cy="0.0000000000000000000000000000000000000587422" r="2.1222222" fill="rgb(16,233,133)" />
<circle cx="0.0000000000000000000000020498712" cy="0.000000000000000000000000000000000000019901003" r="2.1222222" fill="rgb(242,119,151)" />
<circle cx="0.000000000000000000000001015099" cy="0.00000000000000000000000000000000000000674217" r="2.1111112" fill="rgb(2,9,72)" />
<circle cx="0.0000000000000000000000005026784" cy="0.000000000000000000000000000000000000002284149" r="2.1111112" fill="rgb(193,3,146)" />
<circle cx="0.000000000000000000000000248927" cy="0.000000000000000000000000000000000000000773836" r="2.1" fill="rgb(37,61,212)" />
<circle cx="0.00000000000000000000000012326898" cy="0.000000000000000000000000000000000000000262165" r="2.1" fill="rgb(146,185,34)" />
<circle cx="0.00000000000000000000000006104297" cy="0.000000000000000000000000000000000000000088817" r="2.1" fill="rgb(140,54,105)" />
<circle cx="0.00000000000000000000000003022856" cy="0.00000000000000000000000000000000000000003009" r="2.088889" fill="rgb(78,193,74)" />
<circle cx="0.000000000000000000000000014969224" cy="0.000000000000000000000000000000000000000010194" r="2.088889" fill="rgb(23,235,54)" />
<circle cx="0.00000000000000000000000000741278" cy="0.000000000000000000000000000000000000000003454" r="2.088889" fill="rgb(229,210,66)" />
<circle cx="0.0000000000000000000000000036708186" cy="0.00000000000000000000000000000000000000000117" r="2.088889" fill="rgb(40,41,115)" />
<circle cx="0.0000000000000000000000000018177942" cy="0.000000000000000000000000000000000000000000397" r="2.088889" fill="rgb(66,65,254)" />
<circle cx="0.0000000000000000000000000009001742" cy="0.000000000000000000000000000000000000000000135" r="2.088889" fill="rgb(173,1,247)" />
<circle cx="0.00000000000000000000000000044576746" cy="0.000000000000000000000000000000000000000000046" r="2.0777779" fill="rgb(87,220,89)" />
<circle cx="0.00000000000000000000000000022074465" cy="0.000000000000000000000000000000000000000000015" r="2.0777779" fill="rgb(102,73,14)" />
<circle cx="0.00000000000000000000000000010931305" cy="0.000000000000000000000000000000000000000000006" r="2.0777779" fill="rgb(166,105,14)" />
<circle cx="0.00000000000000000000000000005413197" cy="0.000000000000000000000000000000000000000000001" r="2.0777779" fill="rgb(252,151,253)" />
<circle cx="0.000000000000000000000000000026806224" cy="0.000000000000000000000000000000000000000000001" r="2.0777779" fill="rgb(116,31,118)" />
<circle cx="0.000000000000000000000000000013274478" cy="0.000000000000000000000000000000000000000000001" r="2.0666666" fill="rgb(25,80,82)" />
<circle cx="0.000000000000000000000000000006573539" cy="0.000000000000000000000000000000000000000000001" r="2.0666666" fill="rgb(81,34,28)" />
<circle cx="0.0000000000000000000000000000032552252" cy="0.000000000000000000000000000000000000000000001" r="2.0666666" fill="rgb(36,79,12)" />
<circle cx="0.0000000000000000000000000000016119919" cy="0.000000000000000000000000000000000000000000001" r="2.0666666" fill="rgb(245,187,15)" />
<circle cx="0.0000000000000000000000000000007982605" cy="0.000000000000000000000000000000000000000000001" r="2.0555556" fill="rgb(181,119,104)" />
<circle cx="0.0000000000000000000000000000003952997" cy="0.000000000000000000000000000000000000000000001" r="2.0555556" fill="rgb(59,25,220)" />
<circle cx="0.00000000000000000000000000000019575293" cy="0.000000000000000000000000000000000000000000001" r="2.0555556" fill="rgb(73,247,75)" />
<circle cx="0.00000000000000000000000000000009693711" cy="0.000000000000000000000000000000000000000000001" r="2.0555556" fill="rgb(138,196,156)" />
<circle cx="0.000000000000000000000000000000048003387" cy="0.000000000000000000000000000000000000000000001" r="2.0555556" fill="rgb(247,231,71)" />
<circle cx="0.000000000000000000000000000000023771342" cy="0.000000000000000000000000000000000000000000001" r="2.0555556" fill="rgb(95,117,135)" />
<circle cx="0.000000000000000000000000000000011771601" cy="0.000000000000000000000000000000000000000000001" r="2.0555556" fill="rgb(99,78,228)" />
<circle cx="0.0000000000000000000000000000000058293125" cy="0.000000000000000000000000000000000000000000001" r="2.0555556" fill="rgb(169,194,121)" />
<circle cx="0.0000000000000000000000000000000028866833" cy="0.000000000000000000000000000000000000000000001" r="2.0444446" fill="rgb(107,178,156)" />
<circle cx="0.0000000000000000000000000000000014294895" cy="0.000000000000000000000000000000000000000000001" r="2.0444446" fill="rgb(113,240,216)" />
<circle cx="0.00000000000000000000000000000000070788513" cy="0.000000000000000000000000000000000000000000001" r="2.0444446" fill="rgb(206,253,204)" />
<circle cx="0.00000000000000000000000000000000035054566" cy="0.000000000000000000000000000000000000000000001" r="2.0444446" fill="rgb(227,173,211)" />
<circle cx="0.00000000000000000000000000000000017359069" cy="0.000000000000000000000000000000000000000000001" r="2.0444446" fill="rgb(236,226,183)" />
<circle cx="0.000000000000000000000000000000000085962346" cy="0.000000000000000000000000000000000000000000001" r="2.0444446" fill="rgb(172,17,242)" />
<circle cx="0.000000000000000000000000000000000042568668" cy="0.000000000000000000000000000000000000000000001" r="2.0333333" fill="rgb(45,78,139)" />
<circle cx="0.000000000000000000000000000000000021080062" cy="0.000000000000000000000000000000000000000000001" r="2.0333333" fill="rgb(161,75,41)" />
<circle cx="0.000000000000000000000000000000000010438875" cy="0.000000000000000000000000000000000000000000001" r="2.0333333" fill="rgb(169,191,222)" />
<circle cx="0.0000000000000000000000000000000000051693447" cy="0.000000000000000000000000000000000000000000001" r="2.0333333" fill="rgb(141,190,77)" />
<circle cx="0.0000000000000000000000000000000000025598664" cy="0.000000000000000000000000000000000000000000001" r="2.0222223" fill="rgb(78,200,44)" />
<circle cx="0.0000000000000000000000000000000000012676493" cy="0.000000000000000000000000000000000000000000001" r="2.0222223" fill="rgb(14,129,30)" />
<circle cx="0.00000000000000000000000000000000000062774167" cy="0.000000000000000000000000000000000000000000001" r="2.011111" fill="rgb(15,246,90)" />
</svg>
