<?xml version="1.0" encoding="UTF-8" standalone="no"?>
<!DOCTYPE svg PUBLIC "-//W3C//DTD SVG 1.1//EN" "http://www.w3.org/Graphics/SVG/1.1/DTD/svg11.dtd">
<svg width="360" height="360" viewBox="0 0 360 360" version="1.1" xmlns="http://www.w3.org/2000/svg">
<rect x="0" y="0" width="360" height="360" style="fill:white;"/>
<circle cx="180.0" cy="180.0" r="99.78261" fill="rgb(141,187,100)" />
<circle cx="282.91284" cy="113.0167" r="22.869566" fill="rgb(223,150,174)" />
<circle cx="302.21515" cy="155.32669" r="21.565218" fill="rgb(242,81,181)" />
<circle cx="305.21286" cy="196.8964" r="19.782608" fill="rgb(36,222,73)" />
<circle cx="295.43347" cy="235.08551" r="19.391304" fill="rgb(78,191,123)" />
<circle cx="277.84674" cy="264.4287" r="13.0" fill="rgb(162,113,54)" />
<circle cx="259.73495" cy="282.9759" r="12.217391" fill="rgb(254,192,97)" />
<circle cx="238.1301" cy="297.66095" r="11.73913" fill="rgb(205,174,206)" />
<circle cx="213.85143" cy="307.83112" r="11.608696" fill="rgb(94,120,21)" />
<circle cx="190.78358" cy="312.68884" r="11.130435" fill="rgb(191,196,46)" />
<circle cx="167.06242" cy="313.38937" r="10.391304" fill="rgb(250,195,171)" />
<circle cx="146.35834" cy="310.52753" r="8.956522" fill="rgb(108,133,8)" />
<circle cx="129.0538" cy="305.51447" r="8.869565" fill="rgb(234,217,170)" />
<circle cx="112.489395" cy="298.20654" r="7.9565215" fill="rgb(191,147,239)" />
<circle cx="96.96949" cy="288.71234" r="7.6086955" fill="rgb(208,159,142)" />
<circle cx="85.04291" cy="279.23663" r="7.173913" fill="rgb(239,214,84)" />
<circle cx="74.19843" cy="268.4518" r="6.826087" fill="rgb(81,8,75)" />
<circle cx="64.579796" cy="256.48157" r="6.652174" fill="rgb(91,213,141)" />
<circle cx="56.316628" cy="243.46533" r="6.3913045" fill="rgb(86,77,55)" />
<circle cx="49.52263" cy="229.55673" r="6.0" fill="rgb(126,142,224)" />
<circle cx="45.210556" cy="217.8985" r="6.0" fill="rgb(207,133,27)" />
<circle cx="41.941467" cy="205.86505" r="5.608696" fill="rgb(84,68,172)" />
<circle cx="39.74797" cy="193.5498" r="5.2608695" fill="rgb(191,36,197)" />
<circle cx="38.654373" cy="181.04901" r="4.7391305" fill="rgb(106,4,202)" />
<circle cx="38.67627" cy="168.461" r="4.695652" fill="rgb(87,66,101)" />
<circle cx="39.4292" cy="159.0227" r="4.608696" fill="rgb(128,118,157)" />
<circle cx="40.813232" cy="149.63367" r="4.608696" fill="rgb(142,196,166)" />
<circle cx="42.82512" cy="140.33615" r="4.347826" fill="rgb(222,66,80)" />
<circle cx="45.458817" cy="131.1722" r="4.130435" fill="rgb(90,152,141)" />
<circle cx="48.7054" cy="122.183426" r="4.043478" fill="rgb(44,72,10)" />
<circle cx="52.55323" cy="113.41087" r="3.8695652" fill="rgb(243,58,83)" />
<circle cx="56.987854" cy="104.894806" r="3.7391305" fill="rgb(63,105,44)" />
<circle cx="61.992188" cy="96.67452" r="3.695652" fill="rgb(158,201,133)" />
<circle cx="67.54642" cy="88.78815" r="3.5652175" fill="rgb(43,248,156)" />
<circle cx="73.62824" cy="81.27254" r="3.521739" fill="rgb(137,231,117)" />
<circle cx="80.21289" cy="74.163" r="3.478261" fill="rgb(240,196,132)" />
<circle cx="87.2732" cy="67.49322" r="3.478261" fill="rgb(70,6,158)" />
<circle cx="94.77977" cy="61.295044" r="3.478261" fill="rgb(60,39,29)" />
<circle cx="102.70104" cy="55.598366" r="3.3913045" fill="rgb(238,198,224)" />
<circle cx="111.00348" cy="50.430954" r="3.347826" fill="rgb(163,156,214)" />
<circle cx="119.65167" cy="45.818314" r="3.347826" fill="rgb(179,236,39)" />
<circle cx="128.60849" cy="41.78363" r="3.304348" fill="rgb(179,133,223)" />
<circle cx="137.83527" cy="38.347534" r="3.2608695" fill="rgb(156,190,174)" />
<circle cx="147.29195" cy="35.528137" r="3.2608695" fill="rgb(44,130,38)" />
<circle cx="153.7038" cy="33.99884" r="3.2173913" fill="rgb(146,171,181)" />
<circle cx="160.18701" cy="32.75441" r="3.173913" fill="rgb(60,133,239)" />
<circle cx="166.72894" cy="31.798141" r="3.0869565" fill="rgb(205,164,197)" />
<circle cx="173.31674" cy="31.132843" r="3.0" fill="rgb(49,234,169)" />
<circle cx="179.93748" cy="30.760666" r="3.0" fill="rgb(193,6,21)" />
<circle cx="186.5781" cy="30.683212" r="3.0" fill="rgb(119,141,219)" />
<circle cx="193.22543" cy="30.901566" r="3.0" fill="rgb(35,35,233)" />
<circle cx="199.86633" cy="31.416122" r="3.0" fill="rgb(204,176,155)" />
<circle cx="206.48756" cy="32.226776" r="2.9565217" fill="rgb(25,43,211)" />
<circle cx="213.07593" cy="33.332733" r="2.9130435" fill="rgb(191,94,206)" />
<circle cx="219.61823" cy="34.732742" r="2.9130435" fill="rgb(31,26,209)" />
<circle cx="226.10133" cy="36.42485" r="2.9130435" fill="rgb(216,76,8)" />
<circle cx="232.5122" cy="38.40654" r="2.9130435" fill="rgb(200,222,135)" />
<circle cx="238.83786" cy="40.67476" r="2.8695652" fill="rgb(113,39,72)" />
<circle cx="245.0655" cy="43.225845" r="2.8695652" fill="rgb(133,6,216)" />
<circle cx="251.18246" cy="46.055542" r="2.7826087" fill="rgb(162,235,117)" />
<circle cx="257.1763" cy="49.159042" r="2.7391305" fill="rgb(217,203,201)" />
<circle cx="263.03473" cy="52.531013" r="2.7391305" fill="rgb(18,34,127)" />
<circle cx="268.74567" cy="56.165512" r="2.6956522" fill="rgb(28,142,221)" />
<circle cx="274.29742" cy="60.056076" r="2.6956522" fill="rgb(125,195,162)" />
<circle cx="279.67844" cy="64.19576" r="2.6956522" fill="rgb(115,205,229)" />
<circle cx="284.87756" cy="68.57704" r="2.6956522" fill="rgb(131,198,164)" />
<circle cx="289.8839" cy="73.191925" r="2.652174" fill="rgb(73,52,1)" />
<circle cx="294.68704" cy="78.0319" r="2.652174" fill="rgb(187,200,192)" />
<circle cx="299.27676" cy="83.08804" r="2.6086955" fill="rgb(118,167,131)" />
<circle cx="303.64337" cy="88.35092" r="2.5652175" fill="rgb(191,198,51)" />
<circle cx="307.77753" cy="93.81066" r="2.5652175" fill="rgb(253,255,123)" />
<circle cx="311.67035" cy="99.45701" r="2.5652175" fill="rgb(1,129,99)" />
<circle cx="315.31342" cy="105.27928" r="2.5652175" fill="rgb(161,76,193)" />
<circle cx="318.69882" cy="111.26641" r="2.5652175" fill="rgb(61,142,83)" />
<circle cx="321.81903" cy="117.407" r="2.521739" fill="rgb(245,198,82)" />
<circle cx="324.66714" cy="123.68927" r="2.521739" fill="rgb(169,87,210)" />
<circle cx="327.23666" cy="130.10117" r="2.521739" fill="rgb(127,139,122)" />
<circle cx="329.52173" cy="136.63031" r="2.521739" fill="rgb(154,102,103)" />
<circle cx="331.51703" cy="143.26408" r="2.521739" fill="rgb(94,4,95)" />
<circle cx="333.2177" cy="149.98961" r="2.478261" fill="rgb(139,114,170)" />
<circle cx="334.61957" cy="156.79378" r="2.478261" fill="rgb(115,238,125)" />
<circle cx="335.71896" cy="163.66331" r="2.478261" fill="rgb(89,219,213)" />
<circle cx="336.51288" cy="170.58476" r="2.478261" fill="rgb(115,3,177)" />
<circle cx="336.99884" cy="177.54451" r="2.478261" fill="rgb(131,224,191)" />
<circle cx="337.17508" cy="184.52885" r="2.478261" fill="rgb(22,221,175)" />
<circle cx="337.04028" cy="191.524" r="2.478261" fill="rgb(94,184,160)" />
<circle cx="336.5939" cy="198.51608" r="2.4347825" fill="rgb(124,6,101)" />
<circle cx="335.83594" cy="205.49121" r="2.4347825" fill="rgb(212,239,40)" />
<circle cx="334.76697" cy="212.43549" r="2.3913043" fill="rgb(80,49,135)" />
<circle cx="333.3883" cy="219.33502" r="2.3913043" fill="rgb(142,255,225)" />
<circle cx="331.70178" cy="226.176" r="2.3913043" fill="rgb(33,205,200)" />
<circle cx="329.70987" cy="232.94467" r="2.347826" fill="rgb(97,37,226)" />
<circle cx="327.4157" cy="239.62738" r="2.347826" fill="rgb(87,89,210)" />
<circle cx="324.823" cy="246.21065" r="2.347826" fill="rgb(48,229,211)" />
<circle cx="321.93604" cy="252.68112" r="2.347826" fill="rgb(138,154,143)" />
<circle cx="318.75977" cy="259.0256" r="2.347826" fill="rgb(254,220,9)" />
<circle cx="315.29962" cy="265.23117" r="2.347826" fill="rgb(93,152,70)" />
<circle cx="311.56207" cy="271.2846" r="2.3043478" fill="rgb(109,213,5)" />
<circle cx="307.5535" cy="277.174" r="2.3043478" fill="rgb(131,215,15)" />
<circle cx="303.28107" cy="282.8872" r="2.3043478" fill="rgb(207,69,255)" />
<circle cx="298.75253" cy="288.4124" r="2.3043478" fill="rgb(232,6,133)" />
<circle cx="293.9762" cy="293.73813" r="2.3043478" fill="rgb(138,128,191)" />
<circle cx="288.96085" cy="298.8532" r="2.2608695" fill="rgb(70,91,247)" />
<circle cx="283.71576" cy="303.74695" r="2.2608695" fill="rgb(48,85,248)" />
<circle cx="278.25076" cy="308.409" r="2.2608695" fill="rgb(43,162,52)" />
<circle cx="272.57605" cy="312.82947" r="2.2608695" fill="rgb(136,74,58)" />
<circle cx="266.70233" cy="316.99896" r="2.2173913" fill="rgb(96,213,226)" />
<circle cx="260.6407" cy="320.90845" r="2.2173913" fill="rgb(239,112,221)" />
<circle cx="254.4027" cy="324.5495" r="2.2173913" fill="rgb(75,6,22)" />
<circle cx="248.00021" cy="327.91418" r="2.2173913" fill="rgb(61,11,172)" />
<circle cx="241.44553" cy="330.995" r="2.2173913" fill="rgb(245,48,12)" />
<circle cx="234.75119" cy="333.78506" r="2.2173913" fill="rgb(36,35,174)" />
<circle cx="227.93015" cy="336.27808" r="2.2173913" fill="rgb(87,20,8)" />
<circle cx="220.99557" cy="338.46832" r="2.2173913" fill="rgb(127,5,202)" />
<circle cx="213.96094" cy="340.35056" r="2.173913" fill="rgb(3,68,177)" />
<circle cx="206.83992" cy="341.92023" r="2.173913" fill="rgb(150,67,15)" />
<circle cx="199.64642" cy="343.1734" r="2.173913" fill="rgb(64,253,7)" />
<circle cx="192.39452" cy="344.10672" r="2.173913" fill="rgb(154,91,90)" />
<circle cx="185.09845" cy="344.71747" r="2.173913" fill="rgb(166,123,177)" />
<circle cx="177.77258" cy="345.00354" r="2.173913" fill="rgb(128,185,239)" />
<circle cx="170.43137" cy="344.9635" r="2.1304348" fill="rgb(222,238,2)" />
<circle cx="163.08934" cy="344.59662" r="2.1304348" fill="rgb(42,38,119)" />
<circle cx="155.76105" cy="343.90265" r="2.1304348" fill="rgb(34,170,203)" />
<circle cx="148.4611" cy="342.88214" r="2.1304348" fill="rgb(234,118,140)" />
<circle cx="141.20404" cy="341.53625" r="2.0869565" fill="rgb(25,114,152)" />
<circle cx="134.0044" cy="339.86676" r="2.0869565" fill="rgb(7,118,49)" />
<circle cx="126.87661" cy="337.8761" r="2.0434783" fill="rgb(7,179,9)" />
</svg>
