<?xml version="1.0" encoding="UTF-8" standalone="no"?>
<!DOCTYPE svg PUBLIC "-//W3C//DTD SVG 1.1//EN" "http://www.w3.org/Graphics/SVG/1.1/DTD/svg11.dtd">
<svg width="360" height="360" viewBox="0 0 360 360" version="1.1" xmlns="http://www.w3.org/2000/svg">
<rect x="0" y="0" width="360" height="360" style="fill:white;"/>
<circle cx="180.0" cy="180.0" r="99.78261" fill="rgb(39,234,46)" />
<circle cx="291.056" cy="232.30103" r="22.869566" fill="rgb(45,211,88)" />
<circle cx="111.66078" cy="79.60062" r="21.565218" fill="rgb(61,185,3)" />
<circle cx="263.75333" cy="265.64685" r="19.782608" fill="rgb(89,145,94)" />
<circle cx="296.05753" cy="152.47571" r="19.391304" fill="rgb(69,102,171)" />
<circle cx="292.99158" cy="185.68408" r="13.0" fill="rgb(251,217,240)" />
<circle cx="146.0081" cy="73.10458" r="12.217391" fill="rgb(127,218,43)" />
<circle cx="70.05104" cy="160.72845" r="11.73913" fill="rgb(85,82,32)" />
<circle cx="68.92017" cy="189.61482" r="11.608696" fill="rgb(196,207,71)" />
<circle cx="124.35946" cy="276.0653" r="11.130435" fill="rgb(170,115,163)" />
<circle cx="234.36981" cy="276.19357" r="10.391304" fill="rgb(63,246,246)" />
<circle cx="167.8739" cy="71.5496" r="8.956522" fill="rgb(216,91,241)" />
<circle cx="98.225784" cy="108.29973" r="8.869565" fill="rgb(70,66,178)" />
<circle cx="110.32349" cy="262.46768" r="7.9565215" fill="rgb(252,105,107)" />
<circle cx="205.33817" cy="284.4629" r="7.6086955" fill="rgb(195,78,122)" />
<circle cx="190.52824" cy="287.0454" r="7.173913" fill="rgb(57,146,185)" />
<circle cx="175.49313" cy="287.53748" r="6.826087" fill="rgb(101,148,168)" />
<circle cx="269.34067" cy="121.961586" r="6.652174" fill="rgb(228,52,142)" />
<circle cx="228.60162" cy="85.48659" r="6.3913045" fill="rgb(69,38,202)" />
<circle cx="183.73334" cy="74.008156" r="6.0" fill="rgb(163,68,118)" />
<circle cx="196.39737" cy="75.15697" r="6.0" fill="rgb(47,225,226)" />
<circle cx="86.264534" cy="131.60165" r="5.608696" fill="rgb(61,4,145)" />
<circle cx="80.15831" cy="146.1686" r="5.2608695" fill="rgb(75,44,168)" />
<circle cx="148.24548" cy="279.68787" r="4.7391305" fill="rgb(176,44,11)" />
<circle cx="103.455086" cy="251.69583" r="4.695652" fill="rgb(70,220,55)" />
<circle cx="164.5359" cy="283.3932" r="4.608696" fill="rgb(200,226,212)" />
<circle cx="97.2887" cy="244.55768" r="4.608696" fill="rgb(121,196,187)" />
<circle cx="218.79938" cy="276.79147" r="4.347826" fill="rgb(119,73,246)" />
<circle cx="91.78611" cy="236.89116" r="4.130435" fill="rgb(66,210,173)" />
<circle cx="264.64618" cy="240.41254" r="4.043478" fill="rgb(255,177,31)" />
<circle cx="281.909" cy="199.60992" r="3.8695652" fill="rgb(48,121,251)" />
<circle cx="280.05573" cy="207.6975" r="3.7391305" fill="rgb(35,227,75)" />
<circle cx="139.40152" cy="276.47382" r="3.695652" fill="rgb(48,87,0)" />
<circle cx="272.25336" cy="133.19235" r="3.5652175" fill="rgb(158,201,2)" />
<circle cx="275.332" cy="139.74217" r="3.521739" fill="rgb(207,176,234)" />
<circle cx="283.31424" cy="171.74323" r="3.478261" fill="rgb(206,204,104)" />
<circle cx="156.31815" cy="281.8667" r="3.478261" fill="rgb(117,66,101)" />
<circle cx="87.48876" cy="229.6826" r="3.478261" fill="rgb(165,196,31)" />
<circle cx="251.25931" cy="105.24288" r="3.3913045" fill="rgb(254,119,229)" />
<circle cx="244.22784" cy="99.17916" r="3.347826" fill="rgb(175,204,197)" />
<circle cx="256.33667" cy="110.38354" r="3.347826" fill="rgb(24,120,217)" />
<circle cx="236.6834" cy="93.77394" r="3.304348" fill="rgb(75,43,214)" />
<circle cx="261.04388" cy="115.8684" r="3.2608695" fill="rgb(87,52,98)" />
<circle cx="84.21014" cy="223.10847" r="3.2608695" fill="rgb(149,74,29)" />
<circle cx="81.39816" cy="216.31897" r="3.2173913" fill="rgb(176,207,156)" />
<circle cx="212.58412" cy="82.22774" r="3.173913" fill="rgb(147,199,33)" />
<circle cx="204.66129" cy="79.9764" r="3.0869565" fill="rgb(243,163,60)" />
<circle cx="79.066925" cy="209.34717" r="3.0" fill="rgb(56,77,5)" />
<circle cx="77.4603" cy="203.25203" r="3.0" fill="rgb(164,90,76)" />
<circle cx="74.7986" cy="176.11978" r="3.0" fill="rgb(175,242,71)" />
<circle cx="90.953125" cy="123.35298" r="3.0" fill="rgb(251,255,163)" />
<circle cx="218.91034" cy="81.155334" r="3.0" fill="rgb(227,20,48)" />
<circle cx="79.97726" cy="137.70767" r="2.9565217" fill="rgb(150,58,118)" />
<circle cx="205.81741" cy="73.79172" r="2.9130435" fill="rgb(195,244,166)" />
<circle cx="212.145" cy="75.50122" r="2.9130435" fill="rgb(212,16,191)" />
<circle cx="237.9848" cy="87.1588" r="2.9130435" fill="rgb(39,26,200)" />
<circle cx="243.46204" cy="90.77634" r="2.9130435" fill="rgb(162,188,211)" />
<circle cx="248.71405" cy="94.71671" r="2.8695652" fill="rgb(157,29,48)" />
<circle cx="253.72183" cy="98.96594" r="2.8695652" fill="rgb(30,146,227)" />
<circle cx="135.53572" cy="87.453285" r="2.7826087" fill="rgb(67,231,89)" />
<circle cx="258.46725" cy="103.508896" r="2.7391305" fill="rgb(126,86,86)" />
<circle cx="262.9331" cy="108.32941" r="2.7391305" fill="rgb(205,30,82)" />
<circle cx="276.66547" cy="128.09163" r="2.6956522" fill="rgb(98,176,214)" />
<circle cx="279.62985" cy="133.96562" r="2.6956522" fill="rgb(175,68,13)" />
<circle cx="287.49878" cy="203.67902" r="2.6956522" fill="rgb(191,83,199)" />
<circle cx="217.35022" cy="284.08182" r="2.6956522" fill="rgb(90,192,39)" />
<circle cx="159.59207" cy="288.9506" r="2.652174" fill="rgb(248,10,176)" />
<circle cx="154.16945" cy="287.81946" r="2.652174" fill="rgb(38,229,15)" />
<circle cx="109.542175" cy="105.529396" r="2.6086955" fill="rgb(137,77,132)" />
<circle cx="240.6139" cy="264.70496" r="2.5652175" fill="rgb(144,160,87)" />
<circle cx="266.42932" cy="112.54616" r="2.5652175" fill="rgb(219,72,185)" />
<circle cx="142.47705" cy="284.3862" r="2.5652175" fill="rgb(183,52,83)" />
<circle cx="96.121185" cy="252.97537" r="2.5652175" fill="rgb(35,89,79)" />
<circle cx="89.86851" cy="245.17192" r="2.5652175" fill="rgb(101,128,47)" />
<circle cx="96.23984" cy="121.05997" r="2.521739" fill="rgb(139,255,119)" />
<circle cx="84.916954" cy="237.78558" r="2.521739" fill="rgb(232,192,199)" />
<circle cx="82.12718" cy="232.97578" r="2.521739" fill="rgb(20,162,139)" />
<circle cx="79.5806" cy="228.03152" r="2.521739" fill="rgb(168,207,5)" />
<circle cx="77.28364" cy="222.96507" r="2.521739" fill="rgb(173,216,172)" />
<circle cx="90.89771" cy="117.73622" r="2.478261" fill="rgb(126,11,166)" />
<circle cx="137.29999" cy="282.4046" r="2.478261" fill="rgb(69,61,154)" />
<circle cx="75.24218" cy="217.78906" r="2.478261" fill="rgb(251,62,100)" />
<circle cx="73.46143" cy="212.51634" r="2.478261" fill="rgb(188,217,232)" />
<circle cx="71.94594" cy="207.16006" r="2.478261" fill="rgb(91,2,126)" />
<circle cx="68.54581" cy="175.13907" r="2.478261" fill="rgb(68,128,83)" />
<circle cx="83.72183" cy="123.15917" r="2.478261" fill="rgb(247,146,32)" />
<circle cx="190.31223" cy="68.1044" r="2.4347825" fill="rgb(128,251,249)" />
<circle cx="217.7024" cy="74.01135" r="2.4347825" fill="rgb(238,62,113)" />
<circle cx="85.89451" cy="139.8458" r="2.3913043" fill="rgb(104,216,162)" />
<circle cx="222.9592" cy="76.003876" r="2.3913043" fill="rgb(100,166,220)" />
<circle cx="224.39485" cy="284.66837" r="2.3913043" fill="rgb(109,193,243)" />
<circle cx="183.56973" cy="293.82315" r="2.347826" fill="rgb(62,101,181)" />
<circle cx="167.6527" cy="293.27814" r="2.347826" fill="rgb(142,8,248)" />
<circle cx="148.6529" cy="289.64087" r="2.347826" fill="rgb(172,172,168)" />
<circle cx="99.77257" cy="261.39026" r="2.347826" fill="rgb(200,152,94)" />
<circle cx="90.56389" cy="251.24402" r="2.347826" fill="rgb(220,34,162)" />
<circle cx="84.488106" cy="242.94676" r="2.347826" fill="rgb(197,111,208)" />
<circle cx="68.01329" cy="204.21022" r="2.3043478" fill="rgb(226,108,213)" />
<circle cx="70.19221" cy="146.41612" r="2.3043478" fill="rgb(63,139,96)" />
<circle cx="71.98337" cy="140.96446" r="2.3043478" fill="rgb(163,45,162)" />
<circle cx="74.04505" cy="135.60791" r="2.3043478" fill="rgb(100,146,19)" />
<circle cx="76.372246" cy="130.35991" r="2.3043478" fill="rgb(107,116,100)" />
<circle cx="78.95925" cy="125.23358" r="2.2608695" fill="rgb(164,235,170)" />
<circle cx="83.00533" cy="118.28557" r="2.2608695" fill="rgb(26,148,83)" />
<circle cx="86.188774" cy="113.50311" r="2.2608695" fill="rgb(12,2,192)" />
<circle cx="177.1515" cy="64.581726" r="2.2608695" fill="rgb(246,17,206)" />
<circle cx="181.76704" cy="64.540115" r="2.2173913" fill="rgb(208,136,129)" />
<circle cx="186.38136" cy="64.68304" r="2.2173913" fill="rgb(98,116,203)" />
<circle cx="194.4313" cy="65.37651" r="2.2173913" fill="rgb(242,252,107)" />
<circle cx="199.00426" cy="66.02516" r="2.2173913" fill="rgb(120,218,19)" />
<circle cx="203.54843" cy="66.85621" r="2.2173913" fill="rgb(5,223,166)" />
<circle cx="208.05652" cy="67.868385" r="2.2173913" fill="rgb(0,45,239)" />
<circle cx="212.52133" cy="69.06014" r="2.2173913" fill="rgb(231,122,132)" />
<circle cx="227.7048" cy="74.616295" r="2.2173913" fill="rgb(218,192,29)" />
<circle cx="231.88754" cy="76.58927" r="2.173913" fill="rgb(219,125,186)" />
<circle cx="235.98883" cy="78.72821" r="2.173913" fill="rgb(143,232,17)" />
<circle cx="240.00201" cy="81.029755" r="2.173913" fill="rgb(215,234,141)" />
<circle cx="243.9207" cy="83.490295" r="2.173913" fill="rgb(34,47,111)" />
<circle cx="247.73856" cy="86.10594" r="2.173913" fill="rgb(210,242,21)" />
<circle cx="251.44946" cy="88.87256" r="2.173913" fill="rgb(178,26,184)" />
<circle cx="255.04745" cy="91.7858" r="2.1304348" fill="rgb(229,50,195)" />
<circle cx="258.52673" cy="94.841034" r="2.1304348" fill="rgb(207,41,87)" />
<circle cx="261.8817" cy="98.03344" r="2.1304348" fill="rgb(112,101,110)" />
<circle cx="265.10693" cy="101.35796" r="2.1304348" fill="rgb(111,172,87)" />
<circle cx="159.77602" cy="79.20997" r="2.0869565" fill="rgb(79,26,8)" />
<circle cx="214.82686" cy="288.276" r="2.0869565" fill="rgb(115,210,195)" />
<circle cx="198.27652" cy="292.3371" r="2.0434783" fill="rgb(70,122,123)" />
</svg>
