<?xml version="1.0" encoding="UTF-8" standalone="no"?>
<!DOCTYPE svg PUBLIC "-//W3C//DTD SVG 1.1//EN" "http://www.w3.org/Graphics/SVG/1.1/DTD/svg11.dtd">
<svg width="360" height="360" viewBox="0 0 360 360" version="1.1" xmlns="http://www.w3.org/2000/svg">
<rect x="0" y="0" width="360" height="360" style="fill:white;"/>
<circle cx="180.0" cy="180.0" r="99.78261" fill="rgb(89,205,54)" />
<circle cx="290.93225" cy="232.56573" r="22.869566" fill="rgb(123,166,191)" />
<circle cx="112.8249" cy="78.81107" r="21.565218" fill="rgb(16,190,120)" />
<circle cx="262.078" cy="267.26703" r="19.782608" fill="rgb(165,13,154)" />
<circle cx="296.18787" cy="153.0209" r="19.391304" fill="rgb(76,222,111)" />
<circle cx="292.98065" cy="185.91689" r="13.0" fill="rgb(215,193,232)" />
<circle cx="148.18799" cy="72.4251" r="12.217391" fill="rgb(202,162,227)" />
<circle cx="70.03076" cy="160.84767" r="11.73913" fill="rgb(158,241,106)" />
<circle cx="68.786156" cy="188.01607" r="11.608696" fill="rgb(204,198,185)" />
<circle cx="124.71402" cy="276.2677" r="11.130435" fill="rgb(32,224,236)" />
<circle cx="233.04257" cy="276.9396" r="10.391304" fill="rgb(120,9,102)" />
<circle cx="170.00165" cy="71.32293" r="8.956522" fill="rgb(181,232,57)" />
<circle cx="98.49956" cy="107.985794" r="8.869565" fill="rgb(216,175,201)" />
<circle cx="110.87579" cy="262.92685" r="7.9565215" fill="rgb(213,207,34)" />
<circle cx="205.36682" cy="284.4558" r="7.6086955" fill="rgb(28,106,15)" />
<circle cx="188.8878" cy="287.20178" r="7.173913" fill="rgb(186,86,214)" />
<circle cx="174.55779" cy="287.49857" r="6.826087" fill="rgb(133,246,103)" />
<circle cx="269.2254" cy="121.78638" r="6.652174" fill="rgb(214,67,77)" />
<circle cx="229.24095" cy="85.81427" r="6.3913045" fill="rgb(77,11,175)" />
<circle cx="186.31877" cy="74.11859" r="6.0" fill="rgb(214,181,92)" />
<circle cx="200.34781" cy="75.8323" r="6.0" fill="rgb(17,247,216)" />
<circle cx="86.192924" cy="131.74222" r="5.608696" fill="rgb(31,13,176)" />
<circle cx="79.92416" cy="146.87897" r="5.2608695" fill="rgb(146,2,229)" />
<circle cx="147.7827" cy="279.5417" r="4.7391305" fill="rgb(55,84,81)" />
<circle cx="103.030876" cy="251.24458" r="4.695652" fill="rgb(75,45,253)" />
<circle cx="163.60187" cy="283.25375" r="4.608696" fill="rgb(74,22,83)" />
<circle cx="95.56271" cy="242.306" r="4.608696" fill="rgb(150,195,142)" />
<circle cx="216.10306" cy="277.84396" r="4.347826" fill="rgb(150,27,160)" />
<circle cx="90.328285" cy="234.5894" r="4.130435" fill="rgb(70,12,30)" />
<circle cx="264.7906" cy="240.20758" r="4.043478" fill="rgb(111,148,20)" />
<circle cx="281.80756" cy="200.14352" r="3.8695652" fill="rgb(146,207,116)" />
<circle cx="85.797455" cy="226.43524" r="3.7391305" fill="rgb(25,170,168)" />
<circle cx="82.00659" cy="217.90753" r="3.695652" fill="rgb(243,197,47)" />
<circle cx="272.1761" cy="133.04216" r="3.5652175" fill="rgb(254,144,203)" />
<circle cx="276.02112" cy="141.39154" r="3.521739" fill="rgb(219,30,112)" />
<circle cx="78.98628" cy="209.0733" r="3.478261" fill="rgb(149,154,50)" />
<circle cx="90.80843" cy="123.583496" r="3.478261" fill="rgb(135,59,75)" />
<circle cx="211.78659" cy="78.677" r="3.478261" fill="rgb(255,164,26)" />
<circle cx="251.62859" cy="105.59322" r="3.3913045" fill="rgb(134,171,209)" />
<circle cx="244.71445" cy="99.564415" r="3.347826" fill="rgb(107,65,180)" />
<circle cx="256.44977" cy="110.50655" r="3.347826" fill="rgb(152,252,66)" />
<circle cx="237.29575" cy="94.17535" r="3.304348" fill="rgb(204,49,148)" />
<circle cx="260.93448" cy="115.73176" r="3.2608695" fill="rgb(24,142,183)" />
<circle cx="283.3848" cy="172.61972" r="3.2608695" fill="rgb(233,129,174)" />
<circle cx="77.24168" cy="202.2882" r="3.2173913" fill="rgb(242,26,166)" />
<circle cx="216.93669" cy="83.76364" r="3.173913" fill="rgb(158,72,65)" />
<circle cx="139.0581" cy="276.3305" r="3.0869565" fill="rgb(27,174,152)" />
<circle cx="279.6607" cy="209.11194" r="3.0" fill="rgb(130,108,57)" />
<circle cx="155.61765" cy="284.9295" r="3.0" fill="rgb(71,10,69)" />
<circle cx="220.03969" cy="78.22342" r="3.0" fill="rgb(239,13,159)" />
<circle cx="239.51132" cy="88.12" r="3.0" fill="rgb(163,204,173)" />
<circle cx="245.51843" cy="92.260826" r="3.0" fill="rgb(158,97,209)" />
<circle cx="251.23816" cy="96.79391" r="2.9565217" fill="rgb(154,166,219)" />
<circle cx="258.37338" cy="103.4136" r="2.9130435" fill="rgb(165,52,232)" />
<circle cx="263.32544" cy="108.78173" r="2.9130435" fill="rgb(66,30,35)" />
<circle cx="279.26508" cy="133.19336" r="2.9130435" fill="rgb(226,188,88)" />
<circle cx="287.28378" cy="204.65503" r="2.9130435" fill="rgb(104,91,52)" />
<circle cx="140.3201" cy="283.5966" r="2.8695652" fill="rgb(99,179,58)" />
<circle cx="94.52965" cy="251.12189" r="2.8695652" fill="rgb(46,163,173)" />
<circle cx="136.8845" cy="86.80924" r="2.7826087" fill="rgb(97,164,130)" />
<circle cx="79.58039" cy="138.67142" r="2.7391305" fill="rgb(52,21,121)" />
<circle cx="87.12581" cy="241.23923" r="2.7391305" fill="rgb(22,129,182)" />
<circle cx="83.22443" cy="234.9342" r="2.6956522" fill="rgb(242,243,164)" />
<circle cx="78.69046" cy="226.14699" r="2.6956522" fill="rgb(180,98,175)" />
<circle cx="74.95276" cy="216.9884" r="2.6956522" fill="rgb(162,17,45)" />
<circle cx="72.690414" cy="209.91896" r="2.6956522" fill="rgb(157,240,51)" />
<circle cx="70.90342" cy="202.7124" r="2.652174" fill="rgb(219,90,11)" />
<circle cx="83.41769" cy="123.68289" r="2.652174" fill="rgb(219,136,131)" />
<circle cx="110.53819" cy="104.59044" r="2.6086955" fill="rgb(125,132,164)" />
<circle cx="74.86689" cy="174.42159" r="2.5652175" fill="rgb(205,162,89)" />
<circle cx="101.2105" cy="258.39542" r="2.5652175" fill="rgb(140,108,11)" />
<circle cx="87.35529" cy="117.35679" r="2.5652175" fill="rgb(130,182,96)" />
<circle cx="195.08153" cy="68.62535" r="2.5652175" fill="rgb(110,226,251)" />
<circle cx="209.76778" cy="71.55355" r="2.5652175" fill="rgb(162,150,143)" />
<circle cx="97.02516" cy="119.948105" r="2.521739" fill="rgb(66,208,224)" />
<circle cx="149.68304" cy="286.66663" r="2.521739" fill="rgb(91,250,73)" />
<circle cx="269.191" cy="110.976204" r="2.521739" fill="rgb(150,191,201)" />
<circle cx="278.87393" cy="125.586655" r="2.521739" fill="rgb(69,60,74)" />
<circle cx="222.74576" cy="285.36108" r="2.521739" fill="rgb(87,28,163)" />
<circle cx="215.64413" cy="288.0057" r="2.478261" fill="rgb(44,228,43)" />
<circle cx="198.49744" cy="292.29996" r="2.478261" fill="rgb(128,148,176)" />
<circle cx="165.72797" cy="293.06033" r="2.478261" fill="rgb(200,209,168)" />
<circle cx="160.71628" cy="292.33667" r="2.478261" fill="rgb(235,103,219)" />
<circle cx="155.74069" cy="291.39096" r="2.478261" fill="rgb(229,244,196)" />
<circle cx="143.52414" cy="288.06775" r="2.478261" fill="rgb(1,164,78)" />
<circle cx="95.14458" cy="256.5966" r="2.478261" fill="rgb(48,91,14)" />
<circle cx="226.23792" cy="77.40221" r="2.4347825" fill="rgb(69,217,81)" />
<circle cx="257.37003" cy="98.05084" r="2.4347825" fill="rgb(131,11,174)" />
<circle cx="88.64595" cy="248.79013" r="2.3913043" fill="rgb(17,140,102)" />
<circle cx="77.84364" cy="231.59512" r="2.3913043" fill="rgb(127,135,124)" />
<circle cx="73.62639" cy="222.34155" r="2.3913043" fill="rgb(144,146,127)" />
<circle cx="216.93527" cy="73.745415" r="2.347826" fill="rgb(116,131,183)" />
<circle cx="70.635056" cy="144.97943" r="2.347826" fill="rgb(100,241,87)" />
<circle cx="72.27774" cy="140.1484" r="2.347826" fill="rgb(6,16,189)" />
<circle cx="74.13375" cy="135.3942" r="2.347826" fill="rgb(185,109,199)" />
<circle cx="76.19951" cy="130.72623" r="2.347826" fill="rgb(136,216,44)" />
<circle cx="78.47103" cy="126.15375" r="2.347826" fill="rgb(12,219,99)" />
<circle cx="180.63062" cy="64.53324" r="2.3043478" fill="rgb(226,225,223)" />
<circle cx="185.76001" cy="64.65303" r="2.3043478" fill="rgb(254,233,146)" />
<circle cx="190.88" cy="65.0006" r="2.3043478" fill="rgb(228,91,206)" />
<circle cx="201.05139" cy="66.37632" r="2.3043478" fill="rgb(68,46,133)" />
<circle cx="206.08269" cy="67.4019" r="2.3043478" fill="rgb(86,34,86)" />
<circle cx="85.93453" cy="139.75084" r="2.2608695" fill="rgb(251,6,203)" />
<circle cx="223.23746" cy="72.728645" r="2.2608695" fill="rgb(233,234,58)" />
<circle cx="232.6074" cy="76.94971" r="2.2608695" fill="rgb(219,55,161)" />
<circle cx="237.14384" cy="79.36886" r="2.2608695" fill="rgb(66,62,136)" />
<circle cx="241.5692" cy="81.98764" r="2.2173913" fill="rgb(124,108,8)" />
<circle cx="245.87466" cy="84.80096" r="2.2173913" fill="rgb(74,128,199)" />
<circle cx="250.05174" cy="87.80331" r="2.2173913" fill="rgb(189,158,28)" />
<circle cx="254.0921" cy="90.98885" r="2.2173913" fill="rgb(160,135,201)" />
<circle cx="263.54288" cy="99.71251" r="2.2173913" fill="rgb(101,114,79)" />
<circle cx="267.0434" cy="103.48797" r="2.2173913" fill="rgb(123,80,65)" />
<circle cx="275.03424" cy="113.57699" r="2.2173913" fill="rgb(251,186,78)" />
<circle cx="277.90964" cy="117.85196" r="2.2173913" fill="rgb(95,48,206)" />
<circle cx="284.24554" cy="129.06445" r="2.173913" fill="rgb(143,119,93)" />
<circle cx="294.25696" cy="201.94923" r="2.173913" fill="rgb(129,91,160)" />
<circle cx="293.19086" cy="207.0079" r="2.173913" fill="rgb(159,161,134)" />
<circle cx="211.19987" cy="292.66125" r="2.173913" fill="rgb(7,20,171)" />
<circle cx="203.63397" cy="294.52167" r="2.173913" fill="rgb(214,104,215)" />
<circle cx="193.38197" cy="296.21143" r="2.173913" fill="rgb(205,238,165)" />
<circle cx="188.20833" cy="296.71332" r="2.1304348" fill="rgb(252,247,10)" />
<circle cx="183.01651" cy="296.98492" r="2.1304348" fill="rgb(69,179,163)" />
<circle cx="177.81677" cy="297.0257" r="2.1304348" fill="rgb(22,103,176)" />
<circle cx="172.61937" cy="296.83536" r="2.1304348" fill="rgb(122,246,76)" />
<circle cx="286.4255" cy="133.73636" r="2.0869565" fill="rgb(148,15,54)" />
<circle cx="149.5344" cy="293.13818" r="2.0869565" fill="rgb(192,232,208)" />
<circle cx="137.15987" cy="289.11526" r="2.0434783" fill="rgb(94,194,21)" />
</svg>
