<?xml version="1.0" encoding="UTF-8" standalone="no"?>
<!DOCTYPE svg PUBLIC "-//W3C//DTD SVG 1.1//EN" "http://www.w3.org/Graphics/SVG/1.1/DTD/svg11.dtd">
<svg width="360" height="360" viewBox="0 0 360 360" version="1.1" xmlns="http://www.w3.org/2000/svg">
<rect x="0" y="0" width="360" height="360" style="fill:white;"/>
<circle cx="180.0" cy="180.0" r="26.98889" fill="rgb(28,113,193)" />
<circle cx="159.61275" cy="182.90613" r="7.3333335" fill="rgb(20,143,47)" />
<circle cx="158.37776" cy="179.81819" r="7.0" fill="rgb(98,99,124)" />
<circle cx="157.63095" cy="176.42662" r="6.5444446" fill="rgb(218,29,223)" />
<circle cx="157.83931" cy="169.0644" r="6.4444447" fill="rgb(9,167,174)" />
<circle cx="160.56584" cy="161.58755" r="4.8111115" fill="rgb(95,239,238)" />
<circle cx="162.90234" cy="158.07819" r="4.611111" fill="rgb(153,197,252)" />
<circle cx="165.86548" cy="154.87186" r="4.4888887" fill="rgb(87,245,26)" />
<circle cx="169.41428" cy="152.079" r="4.4555554" fill="rgb(24,183,57)" />
<circle cx="173.48856" cy="149.80408" r="4.333333" fill="rgb(198,239,152)" />
<circle cx="178.0099" cy="148.14243" r="4.1444445" fill="rgb(241,25,152)" />
<circle cx="182.88309" cy="147.17703" r="3.7777777" fill="rgb(191,56,109)" />
<circle cx="187.9981" cy="146.97571" r="3.7555556" fill="rgb(252,39,141)" />
<circle cx="193.23256" cy="147.58847" r="3.5222223" fill="rgb(40,116,43)" />
<circle cx="198.45477" cy="149.04546" r="3.4333334" fill="rgb(165,185,176)" />
<circle cx="203.52686" cy="151.3552" r="3.3222222" fill="rgb(231,35,155)" />
<circle cx="208.3084" cy="154.50357" r="3.2333333" fill="rgb(112,45,34)" />
<circle cx="212.66014" cy="158.4532" r="3.188889" fill="rgb(207,108,178)" />
<circle cx="216.44788" cy="163.14362" r="3.1222222" fill="rgb(45,202,173)" />
<circle cx="219.54626" cy="168.4919" r="3.0222223" fill="rgb(196,212,6)" />
<circle cx="221.8425" cy="174.39412" r="3.0222223" fill="rgb(240,97,139)" />
<circle cx="223.2399" cy="180.72725" r="2.9222221" fill="rgb(218,67,170)" />
<circle cx="223.66106" cy="187.35175" r="2.8333333" fill="rgb(209,136,81)" />
<circle cx="223.05058" cy="194.11461" r="2.7" fill="rgb(182,207,198)" />
<circle cx="221.37741" cy="200.85292" r="2.688889" fill="rgb(46,92,69)" />
<circle cx="218.63649" cy="207.39774" r="2.6666667" fill="rgb(129,229,49)" />
<circle cx="214.84985" cy="213.57828" r="2.6666667" fill="rgb(122,27,174)" />
<circle cx="210.06705" cy="219.22635" r="2.6" fill="rgb(118,229,159)" />
<circle cx="204.36475" cy="224.1807" r="2.5444446" fill="rgb(225,67,240)" />
<circle cx="197.8458" cy="228.29144" r="2.5222223" fill="rgb(45,205,21)" />
<circle cx="190.63739" cy="231.42435" r="2.4777777" fill="rgb(164,31,51)" />
<circle cx="182.88873" cy="233.46472" r="2.4444444" fill="rgb(194,241,185)" />
<circle cx="174.7679" cy="234.32097" r="2.4333334" fill="rgb(233,151,33)" />
<circle cx="166.45828" cy="233.9278" r="2.4" fill="rgb(195,5,171)" />
<circle cx="158.1543" cy="232.24857" r="2.3888888" fill="rgb(175,155,162)" />
<circle cx="150.05699" cy="229.27725" r="2.3777778" fill="rgb(115,55,135)" />
<circle cx="142.36914" cy="225.03947" r="2.3777778" fill="rgb(160,149,167)" />
<circle cx="135.29025" cy="219.5929" r="2.3777778" fill="rgb(2,203,115)" />
<circle cx="129.0114" cy="213.02676" r="2.3555555" fill="rgb(33,11,197)" />
<circle cx="123.71034" cy="205.46063" r="2.3444445" fill="rgb(102,251,146)" />
<circle cx="119.54659" cy="197.04231" r="2.3444445" fill="rgb(147,194,54)" />
<circle cx="116.657" cy="187.94507" r="2.3333333" fill="rgb(211,106,165)" />
<circle cx="115.15163" cy="178.36406" r="2.3222222" fill="rgb(67,84,15)" />
<circle cx="116.58005" cy="158.61517" r="2.3222222" fill="rgb(187,53,125)" />
<circle cx="119.57231" cy="148.90686" r="2.3111112" fill="rgb(8,44,45)" />
<circle cx="124.062454" cy="139.62318" r="2.3" fill="rgb(120,223,82)" />
<circle cx="129.98892" cy="130.99675" r="2.2777777" fill="rgb(67,165,112)" />
<circle cx="137.25392" cy="123.25101" r="2.2555556" fill="rgb(87,38,6)" />
<circle cx="145.7247" cy="116.594574" r="2.2555556" fill="rgb(57,114,215)" />
<circle cx="155.23596" cy="111.21573" r="2.2555556" fill="rgb(246,180,174)" />
<circle cx="165.5929" cy="107.27738" r="2.2555556" fill="rgb(158,248,142)" />
<circle cx="176.57527" cy="104.912415" r="2.2555556" fill="rgb(8,211,197)" />
<circle cx="187.94196" cy="104.21973" r="2.2444444" fill="rgb(17,81,172)" />
<circle cx="199.43637" cy="105.26096" r="2.2333333" fill="rgb(156,202,242)" />
<circle cx="210.79211" cy="108.05813" r="2.2333333" fill="rgb(75,82,210)" />
<circle cx="221.73926" cy="112.592026" r="2.2333333" fill="rgb(133,36,18)" />
<circle cx="232.01067" cy="118.80177" r="2.2333333" fill="rgb(11,22,27)" />
<circle cx="241.34854" cy="126.585175" r="2.2222223" fill="rgb(133,17,128)" />
<circle cx="249.51074" cy="135.80026" r="2.2222223" fill="rgb(87,50,193)" />
<circle cx="256.277" cy="146.26765" r="2.2" fill="rgb(175,184,245)" />
<circle cx="261.45474" cy="157.77405" r="2.1888888" fill="rgb(32,25,24)" />
<circle cx="264.8842" cy="170.07648" r="2.1888888" fill="rgb(64,0,31)" />
<circle cx="266.44308" cy="182.90741" r="2.1777778" fill="rgb(96,2,204)" />
<circle cx="266.0503" cy="195.98064" r="2.1777778" fill="rgb(11,202,186)" />
<circle cx="263.66882" cy="208.99753" r="2.1777778" fill="rgb(233,140,200)" />
<circle cx="259.30756" cy="221.65398" r="2.1777778" fill="rgb(161,63,229)" />
<circle cx="253.02216" cy="233.64743" r="2.1666667" fill="rgb(238,205,4)" />
<circle cx="244.91461" cy="244.68408" r="2.1666667" fill="rgb(27,69,80)" />
<circle cx="235.13203" cy="254.48607" r="2.1555555" fill="rgb(2,160,164)" />
<circle cx="223.86395" cy="262.79834" r="2.1444445" fill="rgb(134,243,166)" />
<circle cx="211.33885" cy="269.39526" r="2.1444445" fill="rgb(142,0,151)" />
<circle cx="197.81953" cy="274.0863" r="2.1444445" fill="rgb(226,227,175)" />
<circle cx="183.59767" cy="276.7217" r="2.1444445" fill="rgb(152,143,220)" />
<circle cx="168.98747" cy="277.19638" r="2.1444445" fill="rgb(31,8,27)" />
<circle cx="154.31882" cy="275.45358" r="2.1333334" fill="rgb(63,160,50)" />
<circle cx="139.92972" cy="271.48718" r="2.1333334" fill="rgb(202,251,190)" />
<circle cx="126.15863" cy="265.3427" r="2.1333334" fill="rgb(134,89,35)" />
<circle cx="113.33641" cy="257.11743" r="2.1333334" fill="rgb(136,60,6)" />
<circle cx="101.778496" cy="246.95903" r="2.1333334" fill="rgb(182,12,250)" />
<circle cx="91.77714" cy="235.0631" r="2.1222222" fill="rgb(12,202,135)" />
<circle cx="83.59412" cy="221.6695" r="2.1222222" fill="rgb(219,42,19)" />
<circle cx="77.45406" cy="207.0576" r="2.1222222" fill="rgb(43,162,60)" />
<circle cx="73.538445" cy="191.54051" r="2.1222222" fill="rgb(155,254,254)" />
<circle cx="71.980545" cy="175.4583" r="2.1222222" fill="rgb(163,42,226)" />
<circle cx="72.86144" cy="159.17061" r="2.1222222" fill="rgb(159,44,128)" />
<circle cx="76.20719" cy="143.04851" r="2.1222222" fill="rgb(154,112,255)" />
<circle cx="81.98708" cy="127.466446" r="2.1111112" fill="rgb(85,190,9)" />
<circle cx="90.11351" cy="112.79292" r="2.1111112" fill="rgb(247,208,86)" />
<circle cx="100.44286" cy="99.38226" r="2.1" fill="rgb(226,196,218)" />
<circle cx="112.77793" cy="87.56593" r="2.1" fill="rgb(77,198,104)" />
<circle cx="126.87154" cy="77.64446" r="2.1" fill="rgb(136,223,150)" />
<circle cx="142.43143" cy="69.87988" r="2.088889" fill="rgb(121,15,44)" />
<circle cx="159.12628" cy="64.489" r="2.088889" fill="rgb(177,234,161)" />
<circle cx="176.59274" cy="61.637497" r="2.088889" fill="rgb(187,102,53)" />
<circle cx="194.44334" cy="61.435287" r="2.088889" fill="rgb(99,187,128)" />
<circle cx="212.27505" cy="63.93299" r="2.088889" fill="rgb(159,76,236)" />
<circle cx="229.67845" cy="69.119736" r="2.088889" fill="rgb(239,82,182)" />
<circle cx="246.24701" cy="76.92244" r="2.0777779" fill="rgb(253,253,92)" />
<circle cx="261.5867" cy="87.206406" r="2.0777779" fill="rgb(156,199,155)" />
<circle cx="275.32526" cy="99.77751" r="2.0777779" fill="rgb(25,98,85)" />
<circle cx="287.12115" cy="114.38569" r="2.0777779" fill="rgb(92,48,243)" />
<circle cx="296.67212" cy="130.72984" r="2.0777779" fill="rgb(245,203,36)" />
<circle cx="303.7226" cy="148.46399" r="2.0666666" fill="rgb(243,95,204)" />
<circle cx="308.07056" cy="167.20456" r="2.0666666" fill="rgb(163,178,65)" />
<circle cx="309.57297" cy="186.53871" r="2.0666666" fill="rgb(218,76,50)" />
<circle cx="308.14993" cy="206.03337" r="2.0666666" fill="rgb(53,143,66)" />
<circle cx="303.7877" cy="225.24496" r="2.0555556" fill="rgb(207,20,157)" />
<circle cx="296.5398" cy="243.72949" r="2.0555556" fill="rgb(146,148,253)" />
<circle cx="286.52704" cy="261.0528" r="2.0555556" fill="rgb(230,34,208)" />
<circle cx="273.93555" cy="276.80078" r="2.0555556" fill="rgb(253,56,205)" />
<circle cx="259.01367" cy="290.5891" r="2.0555556" fill="rgb(71,184,182)" />
<circle cx="242.06691" cy="302.07278" r="2.0555556" fill="rgb(120,250,69)" />
<circle cx="223.45195" cy="310.95447" r="2.0555556" fill="rgb(5,71,231)" />
<circle cx="203.56908" cy="316.99213" r="2.0555556" fill="rgb(130,235,55)" />
<circle cx="182.8536" cy="320.0054" r="2.0444446" fill="rgb(39,77,250)" />
<circle cx="161.76639" cy="319.88077" r="2.0444446" fill="rgb(181,71,129)" />
<circle cx="140.78348" cy="316.57495" r="2.0444446" fill="rgb(110,179,62)" />
<circle cx="120.385506" cy="310.11703" r="2.0444446" fill="rgb(214,174,180)" />
<circle cx="101.046555" cy="300.6088" r="2.0444446" fill="rgb(40,249,167)" />
<circle cx="83.22325" cy="288.2234" r="2.0444446" fill="rgb(232,135,46)" />
<circle cx="67.34392" cy="273.20245" r="2.0333333" fill="rgb(150,195,122)" />
<circle cx="53.798424" cy="255.85126" r="2.0333333" fill="rgb(8,18,177)" />
<circle cx="42.928604" cy="236.53284" r="2.0333333" fill="rgb(245,60,136)" />
<circle cx="35.01976" cy="215.66032" r="2.0333333" fill="rgb(56,107,50)" />
<circle cx="30.293335" cy="193.68813" r="2.0222223" fill="rgb(49,89,61)" />
<circle cx="28.90097" cy="171.10207" r="2.0222223" fill="rgb(21,81,253)" />
<circle cx="30.920029" cy="148.40863" r="2.011111" fill="rgb(190,67,115)" />
</svg>
